<svg width="221" height="48" viewBox="0 0 221 48" fill="none" xmlns="http://www.w3.org/2000/svg">
<path d="M62.2803 7.56619H64.347L68.2314 17.9276L72.1065 7.56619H74.1732L69.0433 21H67.401L62.2803 7.56619ZM61.3392 7.56619H63.3044L63.6458 16.5344V21H61.3392V7.56619ZM73.1491 7.56619H75.1236V21H72.8077V16.5344L73.1491 7.56619ZM82.2354 7.56619V21H79.9195V7.56619H82.2354ZM94.0712 17.5401C94.0712 17.2633 94.0281 17.0172 93.942 16.8019C93.862 16.5866 93.7175 16.3898 93.5083 16.2114C93.2992 16.0331 93.004 15.8608 92.6226 15.6948C92.2474 15.5225 91.7676 15.3472 91.1833 15.1688C90.5436 14.972 89.9531 14.7536 89.4118 14.5138C88.8766 14.2677 88.4091 13.9848 88.0093 13.6649C87.6095 13.3389 87.2989 12.9668 87.0775 12.5485C86.856 12.1241 86.7453 11.6351 86.7453 11.0815C86.7453 10.5341 86.8591 10.0358 87.0867 9.5868C87.3204 9.13777 87.6495 8.75026 88.0739 8.42426C88.5045 8.0921 89.0119 7.83683 89.5963 7.65845C90.1806 7.47392 90.8265 7.38166 91.5339 7.38166C92.5303 7.38166 93.3884 7.56619 94.1081 7.93525C94.8339 8.30431 95.3905 8.79947 95.7781 9.42072C96.1717 10.042 96.3686 10.7278 96.3686 11.4782H94.0712C94.0712 11.0354 93.9758 10.6448 93.7851 10.3065C93.6006 9.96201 93.3177 9.69136 92.9363 9.49453C92.5611 9.2977 92.0844 9.19928 91.5062 9.19928C90.9587 9.19928 90.5036 9.28232 90.1407 9.4484C89.7778 9.61448 89.5071 9.83899 89.3287 10.1219C89.1503 10.4049 89.0612 10.7247 89.0612 11.0815C89.0612 11.3337 89.1196 11.5643 89.2365 11.7735C89.3533 11.9765 89.5317 12.1671 89.7716 12.3455C90.0115 12.5178 90.3129 12.6808 90.6758 12.8345C91.0387 12.9883 91.4662 13.1359 91.9583 13.2774C92.7026 13.4988 93.3515 13.7449 93.9051 14.0155C94.4587 14.28 94.92 14.5814 95.2891 14.9197C95.6581 15.258 95.9349 15.6425 96.1194 16.073C96.304 16.4975 96.3962 16.9803 96.3962 17.5216C96.3962 18.0875 96.2824 18.598 96.0549 19.0532C95.8273 19.5022 95.5013 19.8867 95.0768 20.2065C94.6586 20.5202 94.1542 20.7632 93.5637 20.9354C92.9794 21.1015 92.3273 21.1845 91.6077 21.1845C90.9618 21.1845 90.3252 21.0984 89.6978 20.9262C89.0765 20.754 88.5106 20.4925 88.0001 20.1419C87.4896 19.7852 87.0836 19.3423 86.7822 18.8133C86.4808 18.2782 86.3301 17.6538 86.3301 16.9403H88.646C88.646 17.3771 88.7198 17.7492 88.8674 18.0567C89.0212 18.3643 89.2334 18.6165 89.504 18.8133C89.7747 19.004 90.0884 19.1455 90.4451 19.2377C90.808 19.33 91.1956 19.3761 91.6077 19.3761C92.149 19.3761 92.6011 19.2992 92.964 19.1455C93.333 18.9917 93.6098 18.7764 93.7944 18.4996C93.9789 18.2228 94.0712 17.903 94.0712 17.5401ZM105.861 7.56619V21H103.563V7.56619H105.861ZM110.077 7.56619V9.41149H99.3838V7.56619H110.077ZM130.206 14.1355V19.2654C130.015 19.5176 129.717 19.7944 129.311 20.0958C128.911 20.391 128.379 20.6463 127.715 20.8616C127.05 21.0769 126.223 21.1845 125.233 21.1845C124.39 21.1845 123.618 21.0431 122.917 20.7601C122.216 20.471 121.61 20.0497 121.099 19.4961C120.595 18.9425 120.204 18.269 119.928 17.4755C119.651 16.6758 119.512 15.7655 119.512 14.7444V13.8125C119.512 12.7976 119.638 11.8934 119.891 11.0999C120.149 10.3003 120.518 9.6237 120.998 9.07011C121.478 8.51652 122.056 8.09825 122.732 7.8153C123.415 7.52621 124.187 7.38166 125.048 7.38166C126.149 7.38166 127.06 7.56619 127.779 7.93525C128.505 8.29816 129.065 8.80254 129.459 9.4484C129.852 10.0943 130.101 10.8324 130.206 11.6628H127.936C127.862 11.1953 127.718 10.777 127.503 10.408C127.293 10.0389 126.992 9.7498 126.598 9.54066C126.211 9.32538 125.706 9.21774 125.085 9.21774C124.55 9.21774 124.079 9.31923 123.674 9.52221C123.268 9.72519 122.929 10.0235 122.659 10.4172C122.394 10.8108 122.194 11.2906 122.059 11.8565C121.924 12.4224 121.856 13.0683 121.856 13.7941V14.7444C121.856 15.4825 121.933 16.1376 122.087 16.7097C122.246 17.2817 122.474 17.7646 122.769 18.1582C123.071 18.5519 123.437 18.8502 123.867 19.0532C124.298 19.25 124.784 19.3485 125.325 19.3485C125.854 19.3485 126.288 19.3054 126.626 19.2193C126.964 19.127 127.232 19.0194 127.429 18.8964C127.632 18.7672 127.789 18.6442 127.899 18.5273V15.8608H125.104V14.1355H130.206ZM139.892 9.35613L135.878 21H133.452L138.508 7.56619H140.058L139.892 9.35613ZM143.25 21L139.228 9.35613L139.052 7.56619H140.612L145.686 21H143.25ZM143.057 16.0177V17.8538H135.749V16.0177H143.057ZM149.08 7.56619H153.831C154.852 7.56619 155.723 7.71996 156.442 8.02751C157.162 8.33507 157.713 8.79024 158.094 9.39304C158.481 9.98969 158.675 10.7278 158.675 11.6074C158.675 12.2779 158.552 12.8684 158.306 13.3789C158.06 13.8894 157.713 14.32 157.264 14.6706C156.815 15.0151 156.279 15.2826 155.658 15.4733L154.957 15.8147H150.685L150.667 13.9786H153.868C154.422 13.9786 154.883 13.8802 155.252 13.6834C155.621 13.4865 155.898 13.219 156.083 12.8807C156.273 12.5362 156.369 12.1487 156.369 11.7181C156.369 11.2506 156.276 10.8447 156.092 10.5002C155.913 10.1496 155.637 9.88204 155.261 9.69751C154.886 9.50683 154.41 9.41149 153.831 9.41149H151.396V21H149.08V7.56619ZM156.747 21L153.591 14.9659L156.018 14.9566L159.22 20.8801V21H156.747ZM166.774 21H163.905L163.923 19.1639H166.774C167.605 19.1639 168.3 18.9825 168.859 18.6196C169.425 18.2566 169.85 17.7369 170.133 17.0603C170.422 16.3837 170.566 15.5779 170.566 14.6429V13.914C170.566 13.1882 170.483 12.5454 170.317 11.9857C170.157 11.4259 169.917 10.9554 169.598 10.574C169.284 10.1927 168.896 9.90357 168.435 9.70674C167.98 9.50991 167.454 9.41149 166.857 9.41149H163.849V7.56619H166.857C167.749 7.56619 168.564 7.71689 169.302 8.01829C170.04 8.31354 170.677 8.74103 171.212 9.30077C171.754 9.86052 172.169 10.531 172.458 11.3122C172.747 12.0933 172.891 12.9668 172.891 13.9325V14.6429C172.891 15.6086 172.747 16.4821 172.458 17.2633C172.169 18.0444 171.754 18.7149 171.212 19.2746C170.671 19.8282 170.025 20.2557 169.275 20.5571C168.53 20.8524 167.697 21 166.774 21ZM165.187 7.56619V21H162.871V7.56619H165.187ZM185.899 19.1639V21H178.767V19.1639H185.899ZM179.422 7.56619V21H177.106V7.56619H179.422ZM184.967 13.1759V14.9843H178.767V13.1759H184.967ZM185.853 7.56619V9.41149H178.767V7.56619H185.853ZM200.337 7.56619V21H198.021L191.996 11.3767V21H189.68V7.56619H191.996L198.039 17.2079V7.56619H200.337ZM212.052 17.5401C212.052 17.2633 212.009 17.0172 211.923 16.8019C211.843 16.5866 211.699 16.3898 211.49 16.2114C211.281 16.0331 210.985 15.8608 210.604 15.6948C210.229 15.5225 209.749 15.3472 209.165 15.1688C208.525 14.972 207.934 14.7536 207.393 14.5138C206.858 14.2677 206.39 13.9848 205.991 13.6649C205.591 13.3389 205.28 12.9668 205.059 12.5485C204.837 12.1241 204.727 11.6351 204.727 11.0815C204.727 10.5341 204.84 10.0358 205.068 9.5868C205.302 9.13777 205.631 8.75026 206.055 8.42426C206.486 8.0921 206.993 7.83683 207.578 7.65845C208.162 7.47392 208.808 7.38166 209.515 7.38166C210.512 7.38166 211.37 7.56619 212.089 7.93525C212.815 8.30431 213.372 8.79947 213.759 9.42072C214.153 10.042 214.35 10.7278 214.35 11.4782H212.052C212.052 11.0354 211.957 10.6448 211.766 10.3065C211.582 9.96201 211.299 9.69136 210.918 9.49453C210.542 9.2977 210.066 9.19928 209.488 9.19928C208.94 9.19928 208.485 9.28232 208.122 9.4484C207.759 9.61448 207.488 9.83899 207.31 10.1219C207.132 10.4049 207.042 10.7247 207.042 11.0815C207.042 11.3337 207.101 11.5643 207.218 11.7735C207.335 11.9765 207.513 12.1671 207.753 12.3455C207.993 12.5178 208.294 12.6808 208.657 12.8345C209.02 12.9883 209.448 13.1359 209.94 13.2774C210.684 13.4988 211.333 13.7449 211.886 14.0155C212.44 14.28 212.901 14.5814 213.27 14.9197C213.639 15.258 213.916 15.6425 214.101 16.073C214.285 16.4975 214.378 16.9803 214.378 17.5216C214.378 18.0875 214.264 18.598 214.036 19.0532C213.809 19.5022 213.483 19.8867 213.058 20.2065C212.64 20.5202 212.136 20.7632 211.545 20.9354C210.961 21.1015 210.309 21.1845 209.589 21.1845C208.943 21.1845 208.307 21.0984 207.679 20.9262C207.058 20.754 206.492 20.4925 205.981 20.1419C205.471 19.7852 205.065 19.3423 204.764 18.8133C204.462 18.2782 204.311 17.6538 204.311 16.9403H206.627C206.627 17.3771 206.701 17.7492 206.849 18.0567C207.003 18.3643 207.215 18.6165 207.485 18.8133C207.756 19.004 208.07 19.1455 208.426 19.2377C208.789 19.33 209.177 19.3761 209.589 19.3761C210.13 19.3761 210.582 19.2992 210.945 19.1455C211.314 18.9917 211.591 18.7764 211.776 18.4996C211.96 18.2228 212.052 17.903 212.052 17.5401Z" fill="white"/>
<path d="M62.2301 28.2049H63.2771L64.8236 35.3354L68.8371 28.2049H69.9924L65.0161 36.9661H64.1557L62.2301 28.2049ZM61.851 28.2049H62.8198L62.0496 33.5843L61.4599 36.9661H60.3287L61.851 28.2049ZM69.3426 28.2049H70.3174L68.795 36.9661H67.6698L68.2715 33.4881L69.3426 28.2049ZM74.8633 35.4016L75.7178 30.4554H76.8129L75.6817 36.9661H74.6407L74.8633 35.4016ZM75.2725 34.0898L75.7178 34.0717C75.6656 34.4809 75.5733 34.87 75.441 35.2391C75.3086 35.6042 75.1281 35.9291 74.8994 36.2139C74.6748 36.4947 74.394 36.7153 74.057 36.8758C73.724 37.0323 73.3289 37.1045 72.8716 37.0924C72.5146 37.0804 72.2157 37.0082 71.975 36.8758C71.7383 36.7434 71.5518 36.5649 71.4154 36.3403C71.279 36.1156 71.1887 35.8589 71.1446 35.5701C71.1005 35.2812 71.0945 34.9763 71.1266 34.6554L71.8306 30.4554H72.9197L72.2157 34.6735C72.1997 34.85 72.1976 35.0245 72.2097 35.197C72.2217 35.3655 72.2578 35.5199 72.318 35.6603C72.3782 35.8007 72.4704 35.915 72.5948 36.0033C72.7232 36.0875 72.8916 36.1337 73.1002 36.1417C73.5335 36.1577 73.9005 36.0775 74.2014 35.901C74.5023 35.7205 74.741 35.4718 74.9175 35.1549C75.094 34.8379 75.2123 34.4829 75.2725 34.0898ZM81.4612 35.203C81.4973 34.9543 81.4511 34.7597 81.3228 34.6193C81.1984 34.4789 81.0339 34.3726 80.8293 34.3004C80.6288 34.2242 80.4322 34.162 80.2396 34.1139C79.9989 34.0537 79.7563 33.9795 79.5115 33.8912C79.2668 33.803 79.0422 33.6907 78.8376 33.5543C78.637 33.4139 78.4766 33.2414 78.3562 33.0368C78.2399 32.8282 78.1877 32.5754 78.1998 32.2786C78.2158 31.9577 78.3001 31.6749 78.4525 31.4302C78.609 31.1854 78.8095 30.9809 79.0542 30.8164C79.3029 30.6519 79.5737 30.5296 79.8666 30.4493C80.1594 30.3691 80.4502 30.331 80.7391 30.335C81.1483 30.343 81.5193 30.4273 81.8523 30.5877C82.1892 30.7482 82.456 30.9789 82.6526 31.2797C82.8491 31.5806 82.9414 31.9456 82.9294 32.3749L81.8523 32.3689C81.8603 32.1402 81.8142 31.9436 81.7139 31.7792C81.6136 31.6147 81.4752 31.4883 81.2987 31.4001C81.1222 31.3078 80.9216 31.2597 80.697 31.2557C80.4843 31.2516 80.2757 31.2857 80.0712 31.3579C79.8666 31.4261 79.6921 31.5345 79.5477 31.6829C79.4032 31.8273 79.315 32.0158 79.2829 32.2485C79.2588 32.421 79.2849 32.5634 79.3611 32.6757C79.4373 32.784 79.5416 32.8723 79.674 32.9405C79.8104 33.0047 79.9528 33.0588 80.1012 33.103C80.2537 33.1431 80.3921 33.1792 80.5164 33.2113C80.8454 33.3035 81.1703 33.4199 81.4912 33.5603C81.8122 33.7007 82.0729 33.8952 82.2735 34.144C82.4741 34.3887 82.5643 34.7116 82.5443 35.1127C82.5282 35.4537 82.438 35.7506 82.2735 36.0033C82.113 36.252 81.9044 36.4586 81.6477 36.6231C81.395 36.7835 81.1162 36.9019 80.8113 36.9781C80.5064 37.0543 80.2015 37.0904 79.8967 37.0864C79.4754 37.0784 79.0823 36.9921 78.7173 36.8277C78.3562 36.6592 78.0674 36.4185 77.8508 36.1056C77.6342 35.7887 77.5319 35.4036 77.5439 34.9503L78.633 34.9563C78.633 35.217 78.6872 35.4377 78.7955 35.6182C78.9078 35.7947 79.0623 35.9291 79.2588 36.0213C79.4554 36.1136 79.68 36.1618 79.9328 36.1658C80.1454 36.1698 80.362 36.1417 80.5826 36.0815C80.8073 36.0213 80.9998 35.9211 81.1603 35.7807C81.3248 35.6362 81.425 35.4437 81.4612 35.203ZM86.4945 37.0864C86.0492 37.0784 85.6621 36.9901 85.3332 36.8216C85.0082 36.6492 84.7415 36.4185 84.5329 36.1297C84.3283 35.8368 84.1818 35.5039 84.0936 35.1308C84.0053 34.7577 83.9793 34.3666 84.0154 33.9574L84.0394 33.6987C84.0796 33.2815 84.1818 32.8723 84.3463 32.4711C84.5108 32.066 84.7294 31.7009 85.0022 31.376C85.279 31.0511 85.6039 30.7943 85.977 30.6058C86.3541 30.4132 86.7713 30.323 87.2286 30.335C87.6819 30.343 88.059 30.4393 88.3599 30.6238C88.6607 30.8084 88.8954 31.0531 89.0639 31.3579C89.2364 31.6588 89.3487 31.9978 89.4009 32.3749C89.453 32.7479 89.457 33.131 89.4129 33.5242L89.3467 34.0236H84.6231L84.7675 33.115L88.3719 33.121L88.3899 33.0247C88.4301 32.7359 88.414 32.4571 88.3418 32.1883C88.2696 31.9196 88.1372 31.6989 87.9447 31.5264C87.7561 31.3499 87.5014 31.2577 87.1805 31.2496C86.8475 31.2376 86.5587 31.3058 86.314 31.4542C86.0693 31.5986 85.8647 31.7952 85.7002 32.0439C85.5357 32.2886 85.4054 32.5574 85.3091 32.8502C85.2168 33.1391 85.1526 33.4219 85.1165 33.6987L85.0925 33.9514C85.0684 34.2081 85.0764 34.4669 85.1165 34.7276C85.1567 34.9884 85.2329 35.2271 85.3452 35.4437C85.4615 35.6563 85.622 35.8308 85.8266 35.9672C86.0312 36.0996 86.2839 36.1698 86.5848 36.1778C86.9498 36.1858 87.2767 36.1076 87.5656 35.9431C87.8584 35.7746 88.1252 35.562 88.3659 35.3053L88.9857 35.8348C88.7971 36.1116 88.5725 36.3443 88.3117 36.5328C88.051 36.7214 87.7662 36.8618 87.4573 36.954C87.1484 37.0463 86.8275 37.0904 86.4945 37.0864ZM94.3439 35.4016L95.1984 30.4554H96.2935L95.1623 36.9661H94.1213L94.3439 35.4016ZM94.7531 34.0898L95.1984 34.0717C95.1462 34.4809 95.054 34.87 94.9216 35.2391C94.7892 35.6042 94.6087 35.9291 94.38 36.2139C94.1554 36.4947 93.8746 36.7153 93.5376 36.8758C93.2047 37.0323 92.8095 37.1045 92.3522 37.0924C91.9952 37.0804 91.6963 37.0082 91.4556 36.8758C91.219 36.7434 91.0324 36.5649 90.896 36.3403C90.7596 36.1156 90.6694 35.8589 90.6253 35.5701C90.5811 35.2812 90.5751 34.9763 90.6072 34.6554L91.3112 30.4554H92.4004L91.6963 34.6735C91.6803 34.85 91.6783 35.0245 91.6903 35.197C91.7023 35.3655 91.7384 35.5199 91.7986 35.6603C91.8588 35.8007 91.9511 35.915 92.0754 36.0033C92.2038 36.0875 92.3723 36.1337 92.5809 36.1417C93.0141 36.1577 93.3812 36.0775 93.682 35.901C93.9829 35.7205 94.2216 35.4718 94.3981 35.1549C94.5746 34.8379 94.6929 34.4829 94.7531 34.0898ZM98.8959 31.8153L98.0053 36.9661H96.9102L98.0414 30.4554H99.0764L98.8959 31.8153ZM98.4085 33.464L97.9151 33.452C97.9712 33.0468 98.0715 32.6557 98.2159 32.2786C98.3604 31.9015 98.5529 31.5645 98.7936 31.2677C99.0383 30.9708 99.3332 30.7382 99.6781 30.5697C100.023 30.4012 100.422 30.323 100.876 30.335C101.213 30.343 101.497 30.4092 101.73 30.5336C101.963 30.6539 102.149 30.8204 102.29 31.033C102.434 31.2416 102.53 31.4823 102.578 31.7551C102.631 32.0279 102.643 32.3187 102.615 32.6276L101.886 36.9661H100.797L101.519 32.6757C101.552 32.4029 101.535 32.1623 101.471 31.9537C101.411 31.7451 101.297 31.5806 101.128 31.4602C100.96 31.3359 100.731 31.2697 100.442 31.2617C100.117 31.2536 99.8346 31.3098 99.5939 31.4302C99.3572 31.5505 99.1587 31.717 98.9982 31.9296C98.8417 32.1382 98.7154 32.3769 98.6191 32.6456C98.5228 32.9104 98.4526 33.1832 98.4085 33.464ZM102.615 32.8502L101.832 33.0789C101.88 32.7058 101.981 32.3528 102.133 32.0198C102.29 31.6869 102.492 31.392 102.741 31.1353C102.99 30.8786 103.278 30.678 103.607 30.5336C103.936 30.3892 104.299 30.321 104.697 30.329C105.05 30.337 105.348 30.4032 105.593 30.5276C105.838 30.6479 106.032 30.8144 106.177 31.027C106.325 31.2396 106.424 31.4883 106.472 31.7731C106.524 32.0539 106.532 32.3588 106.496 32.6878L105.78 36.9661H104.685L105.407 32.6697C105.439 32.3929 105.425 32.1502 105.364 31.9416C105.308 31.733 105.196 31.5706 105.028 31.4542C104.859 31.3339 104.626 31.2717 104.33 31.2677C104.093 31.2597 103.876 31.2958 103.68 31.376C103.483 31.4562 103.313 31.5706 103.168 31.719C103.024 31.8634 102.903 32.0319 102.807 32.2244C102.715 32.417 102.651 32.6256 102.615 32.8502ZM113.024 32.1041L114.444 31.1714C114.689 31.0109 114.906 30.8324 115.094 30.6359C115.283 30.4393 115.393 30.1866 115.425 29.8777C115.453 29.6129 115.381 29.3983 115.209 29.2338C115.036 29.0694 114.819 28.9851 114.559 28.9811C114.33 28.9811 114.127 29.0393 113.951 29.1556C113.778 29.272 113.638 29.4244 113.53 29.6129C113.425 29.8015 113.361 30.0041 113.337 30.2207C113.309 30.4373 113.331 30.6499 113.403 30.8585C113.476 31.0631 113.572 31.2617 113.692 31.4542C113.813 31.6428 113.929 31.8233 114.041 31.9958L117.285 36.9661H116.063L113.403 32.8984C113.227 32.6376 113.046 32.3689 112.862 32.0921C112.677 31.8112 112.525 31.5184 112.404 31.2135C112.288 30.9087 112.24 30.5897 112.26 30.2568C112.292 29.8195 112.411 29.4364 112.615 29.1075C112.824 28.7745 113.1 28.5178 113.445 28.3373C113.79 28.1567 114.184 28.0725 114.625 28.0845C114.966 28.0926 115.279 28.1708 115.564 28.3192C115.848 28.4676 116.071 28.6762 116.231 28.945C116.396 29.2098 116.468 29.5227 116.448 29.8837C116.432 30.1806 116.356 30.4473 116.219 30.684C116.087 30.9207 115.919 31.1333 115.714 31.3218C115.509 31.5104 115.293 31.6849 115.064 31.8453L113.169 33.1391C112.996 33.2594 112.826 33.3958 112.657 33.5482C112.489 33.6967 112.342 33.8631 112.218 34.0477C112.098 34.2322 112.023 34.4348 111.995 34.6554C111.955 34.9603 111.989 35.2251 112.098 35.4497C112.206 35.6744 112.37 35.8509 112.591 35.9792C112.812 36.1036 113.072 36.1698 113.373 36.1778C113.807 36.1898 114.2 36.1016 114.553 35.913C114.91 35.7205 115.221 35.4637 115.485 35.1428C115.754 34.8179 115.971 34.4629 116.135 34.0778C116.3 33.6886 116.41 33.3035 116.466 32.9224H117.429C117.385 33.3236 117.303 33.6927 117.182 34.0296C117.062 34.3626 116.903 34.6795 116.707 34.9804C116.51 35.2772 116.28 35.5721 116.015 35.8649C115.979 35.905 115.945 35.9491 115.913 35.9973C115.884 36.0414 115.852 36.0835 115.816 36.1236C115.519 36.4566 115.138 36.7033 114.673 36.8638C114.212 37.0202 113.762 37.0944 113.325 37.0864C112.852 37.0744 112.425 36.9701 112.043 36.7735C111.662 36.5769 111.365 36.3002 111.153 35.9431C110.94 35.5821 110.852 35.1529 110.888 34.6554C110.92 34.2422 111.047 33.8832 111.267 33.5783C111.492 33.2694 111.763 32.9967 112.08 32.76C112.396 32.5233 112.711 32.3047 113.024 32.1041ZM125.372 32.8683H123.151L123.302 31.9356L125.197 31.9416C125.506 31.9416 125.797 31.8875 126.07 31.7792C126.346 31.6708 126.577 31.5084 126.762 31.2918C126.95 31.0751 127.064 30.8023 127.104 30.4734C127.145 30.1605 127.113 29.9098 127.008 29.7212C126.904 29.5287 126.743 29.3903 126.527 29.306C126.314 29.2178 126.064 29.1697 125.775 29.1616L124.054 29.1556L122.7 36.9661H121.563L123.085 28.2049L125.799 28.2109C126.164 28.2189 126.501 28.2691 126.81 28.3613C127.123 28.4496 127.391 28.586 127.616 28.7705C127.841 28.951 128.009 29.1837 128.121 29.4685C128.238 29.7533 128.28 30.0943 128.248 30.4915C128.216 30.9207 128.079 31.2817 127.839 31.5746C127.602 31.8674 127.303 32.0981 126.942 32.2666C126.585 32.431 126.214 32.5393 125.829 32.5915L125.372 32.8683ZM124.619 36.9661H121.96L122.76 36.0213L124.649 36.0274C124.99 36.0274 125.305 35.9652 125.594 35.8408C125.883 35.7165 126.122 35.5339 126.31 35.2933C126.503 35.0526 126.621 34.7557 126.665 34.4027C126.701 34.0898 126.677 33.821 126.593 33.5964C126.509 33.3717 126.364 33.1992 126.16 33.0789C125.955 32.9545 125.694 32.8863 125.378 32.8743L123.699 32.8683L123.873 31.9356L126.009 31.9416L126.196 32.2786C126.557 32.3348 126.86 32.4631 127.104 32.6637C127.353 32.8603 127.534 33.109 127.646 33.4098C127.762 33.7067 127.809 34.0336 127.784 34.3907C127.74 34.9643 127.568 35.4437 127.267 35.8288C126.97 36.2099 126.589 36.4967 126.124 36.6893C125.658 36.8778 125.157 36.9701 124.619 36.9661ZM129.256 33.819L129.274 33.6806C129.322 33.2434 129.43 32.8222 129.599 32.417C129.771 32.0118 129.998 31.6508 130.279 31.3339C130.559 31.017 130.892 30.7683 131.277 30.5877C131.662 30.4072 132.092 30.323 132.565 30.335C133.022 30.343 133.414 30.4413 133.738 30.6299C134.067 30.8184 134.332 31.0691 134.533 31.382C134.737 31.6909 134.88 32.0399 134.96 32.429C135.04 32.8181 135.06 33.2193 135.02 33.6325L135.008 33.7709C134.956 34.2081 134.844 34.6273 134.671 35.0285C134.499 35.4296 134.27 35.7867 133.985 36.0996C133.704 36.4125 133.371 36.6592 132.986 36.8397C132.601 37.0162 132.174 37.0984 131.705 37.0864C131.251 37.0784 130.86 36.9821 130.531 36.7976C130.206 36.609 129.944 36.3603 129.743 36.0514C129.542 35.7425 129.402 35.3956 129.322 35.0104C129.242 34.6253 129.219 34.2282 129.256 33.819ZM130.357 33.6806L130.345 33.825C130.317 34.0778 130.315 34.3405 130.339 34.6133C130.367 34.8861 130.431 35.1388 130.531 35.3715C130.636 35.6042 130.786 35.7947 130.983 35.9431C131.179 36.0916 131.434 36.1698 131.747 36.1778C132.08 36.1858 132.373 36.1216 132.625 35.9852C132.878 35.8448 133.093 35.6563 133.269 35.4196C133.45 35.1829 133.592 34.9202 133.696 34.6314C133.805 34.3425 133.877 34.0557 133.913 33.7709L133.925 33.6325C133.953 33.3798 133.953 33.117 133.925 32.8442C133.901 32.5674 133.837 32.3107 133.732 32.074C133.632 31.8333 133.484 31.6388 133.287 31.4903C133.091 31.3379 132.836 31.2577 132.523 31.2496C132.19 31.2376 131.895 31.3038 131.638 31.4482C131.386 31.5886 131.171 31.7792 130.995 32.0198C130.818 32.2605 130.676 32.5273 130.567 32.8201C130.463 33.109 130.393 33.3958 130.357 33.6806ZM139.704 30.4554L139.554 31.3098H136.13L136.281 30.4554H139.704ZM137.713 28.8728H138.796L137.695 35.3655C137.683 35.5059 137.687 35.6322 137.707 35.7446C137.727 35.8569 137.775 35.9471 137.851 36.0153C137.927 36.0795 138.044 36.1136 138.2 36.1176C138.288 36.1176 138.375 36.1116 138.459 36.0996C138.547 36.0835 138.635 36.0695 138.724 36.0575L138.645 36.9721C138.517 37.0082 138.385 37.0343 138.248 37.0503C138.116 37.0704 137.984 37.0784 137.851 37.0744C137.518 37.0704 137.257 36.9861 137.069 36.8216C136.88 36.6572 136.752 36.4446 136.684 36.1838C136.616 35.9231 136.596 35.6443 136.624 35.3474L137.713 28.8728ZM143.889 35.8529L144.431 32.4892C144.459 32.2405 144.435 32.0219 144.359 31.8333C144.287 31.6448 144.164 31.4983 143.992 31.394C143.823 31.2897 143.611 31.2336 143.354 31.2256C143.129 31.2216 142.909 31.2577 142.692 31.3339C142.479 31.4101 142.295 31.5244 142.138 31.6769C141.982 31.8293 141.88 32.0219 141.831 32.2545L140.748 32.2605C140.776 31.9356 140.879 31.6528 141.055 31.4121C141.232 31.1674 141.452 30.9648 141.717 30.8044C141.982 30.6399 142.267 30.5195 142.572 30.4433C142.876 30.3631 143.173 30.325 143.462 30.329C143.899 30.337 144.278 30.4313 144.599 30.6118C144.924 30.7883 145.169 31.037 145.334 31.3579C145.498 31.6789 145.558 32.064 145.514 32.5133L145.015 35.546C144.979 35.7666 144.956 35.9893 144.948 36.2139C144.944 36.4345 144.97 36.6512 145.027 36.8638L145.015 36.9661L143.913 36.9721C143.869 36.7876 143.847 36.601 143.847 36.4125C143.851 36.2239 143.865 36.0374 143.889 35.8529ZM144.557 33.0187L144.431 33.801L143.402 33.795C143.185 33.795 142.957 33.811 142.716 33.8431C142.475 33.8752 142.247 33.9354 142.03 34.0236C141.813 34.1119 141.631 34.2402 141.482 34.4087C141.334 34.5732 141.244 34.7878 141.212 35.0526C141.188 35.2692 141.214 35.4577 141.29 35.6182C141.37 35.7746 141.49 35.897 141.651 35.9852C141.811 36.0735 141.998 36.1196 142.211 36.1236C142.487 36.1277 142.76 36.0735 143.029 35.9612C143.298 35.8489 143.532 35.6884 143.733 35.4798C143.934 35.2712 144.072 35.0305 144.148 34.7577L144.545 35.2933C144.469 35.558 144.345 35.8027 144.172 36.0274C144 36.248 143.795 36.4385 143.558 36.599C143.326 36.7595 143.075 36.8838 142.806 36.9721C142.537 37.0603 142.269 37.1025 142 37.0984C141.635 37.0904 141.304 37.0082 141.007 36.8517C140.714 36.6953 140.482 36.4767 140.309 36.1959C140.141 35.911 140.068 35.5801 140.092 35.203C140.117 34.7898 140.225 34.4428 140.417 34.162C140.61 33.8812 140.857 33.6566 141.158 33.4881C141.462 33.3196 141.795 33.1992 142.156 33.127C142.517 33.0508 142.874 33.0127 143.227 33.0127L144.557 33.0187ZM148.556 31.9115L147.677 36.9661H146.588L147.719 30.4554H148.748L148.556 31.9115ZM148.05 33.464L147.605 33.452C147.661 33.0628 147.763 32.6818 147.912 32.3087C148.064 31.9316 148.263 31.5926 148.508 31.2918C148.756 30.9909 149.051 30.7542 149.392 30.5817C149.737 30.4052 150.13 30.323 150.571 30.335C150.92 30.343 151.211 30.4112 151.444 30.5396C151.681 30.664 151.865 30.8344 151.998 31.0511C152.13 31.2677 152.218 31.5184 152.262 31.8032C152.306 32.084 152.31 32.3829 152.274 32.6998L151.564 36.9661H150.469L151.191 32.6818C151.219 32.421 151.209 32.1863 151.161 31.9777C151.117 31.7651 151.017 31.5966 150.86 31.4723C150.708 31.3439 150.487 31.2757 150.198 31.2677C149.894 31.2597 149.619 31.3178 149.374 31.4422C149.129 31.5665 148.915 31.737 148.73 31.9537C148.55 32.1663 148.401 32.405 148.285 32.6697C148.173 32.9305 148.094 33.1952 148.05 33.464ZM155.629 30.4554L154.498 36.9661H153.408L154.54 30.4554H155.629ZM154.756 28.7464C154.756 28.5579 154.815 28.4014 154.931 28.2771C155.051 28.1487 155.206 28.0825 155.394 28.0785C155.583 28.0745 155.737 28.1327 155.858 28.253C155.982 28.3734 156.042 28.5258 156.038 28.7103C156.038 28.8949 155.976 29.0493 155.852 29.1737C155.731 29.294 155.579 29.3562 155.394 29.3602C155.21 29.3642 155.057 29.3101 154.937 29.1977C154.817 29.0814 154.756 28.931 154.756 28.7464ZM159.068 36.1778C159.332 36.1818 159.579 36.1317 159.808 36.0274C160.036 35.9231 160.231 35.7746 160.391 35.5821C160.552 35.3895 160.666 35.1669 160.734 34.9142L161.769 34.9081C161.705 35.3454 161.535 35.7285 161.258 36.0575C160.985 36.3864 160.65 36.6431 160.253 36.8277C159.86 37.0082 159.449 37.0944 159.02 37.0864C158.562 37.0784 158.173 36.9841 157.852 36.8036C157.535 36.6191 157.281 36.3744 157.088 36.0695C156.895 35.7646 156.763 35.4216 156.691 35.0405C156.619 34.6554 156.603 34.2603 156.643 33.8551L156.667 33.5964C156.715 33.1591 156.821 32.7439 156.986 32.3508C157.15 31.9537 157.369 31.6026 157.642 31.2978C157.918 30.9889 158.245 30.7482 158.622 30.5757C158.999 30.4032 159.423 30.323 159.892 30.335C160.349 30.343 160.746 30.4513 161.083 30.6599C161.42 30.8645 161.681 31.1433 161.866 31.4963C162.05 31.8494 162.142 32.2505 162.142 32.6998L161.12 32.6938C161.116 32.437 161.065 32.2004 160.969 31.9837C160.873 31.7671 160.73 31.5926 160.542 31.4602C160.353 31.3279 160.121 31.2557 159.844 31.2436C159.511 31.2356 159.22 31.2978 158.971 31.4302C158.727 31.5625 158.518 31.7451 158.346 31.9777C158.177 32.2064 158.043 32.4611 157.942 32.7419C157.846 33.0227 157.78 33.3075 157.744 33.5964L157.714 33.8491C157.69 34.1058 157.686 34.3686 157.702 34.6374C157.722 34.9061 157.778 35.1569 157.87 35.3895C157.962 35.6182 158.105 35.8047 158.297 35.9491C158.49 36.0936 158.747 36.1698 159.068 36.1778ZM166.67 35.8529L167.212 32.4892C167.24 32.2405 167.216 32.0219 167.14 31.8333C167.068 31.6448 166.945 31.4983 166.773 31.394C166.604 31.2897 166.392 31.2336 166.135 31.2256C165.91 31.2216 165.69 31.2577 165.473 31.3339C165.26 31.4101 165.076 31.5244 164.919 31.6769C164.763 31.8293 164.661 32.0219 164.612 32.2545L163.529 32.2605C163.557 31.9356 163.66 31.6528 163.836 31.4121C164.013 31.1674 164.233 30.9648 164.498 30.8044C164.763 30.6399 165.048 30.5195 165.353 30.4433C165.657 30.3631 165.954 30.325 166.243 30.329C166.68 30.337 167.059 30.4313 167.38 30.6118C167.705 30.7883 167.95 31.037 168.115 31.3579C168.279 31.6789 168.339 32.064 168.295 32.5133L167.796 35.546C167.76 35.7666 167.737 35.9893 167.729 36.2139C167.725 36.4345 167.751 36.6512 167.808 36.8638L167.796 36.9661L166.694 36.9721C166.65 36.7876 166.628 36.601 166.628 36.4125C166.632 36.2239 166.646 36.0374 166.67 35.8529ZM167.338 33.0187L167.212 33.801L166.183 33.795C165.966 33.795 165.738 33.811 165.497 33.8431C165.256 33.8752 165.028 33.9354 164.811 34.0236C164.594 34.1119 164.412 34.2402 164.263 34.4087C164.115 34.5732 164.025 34.7878 163.993 35.0526C163.969 35.2692 163.995 35.4577 164.071 35.6182C164.151 35.7746 164.271 35.897 164.432 35.9852C164.592 36.0735 164.779 36.1196 164.992 36.1236C165.268 36.1277 165.541 36.0735 165.81 35.9612C166.079 35.8489 166.313 35.6884 166.514 35.4798C166.715 35.2712 166.853 35.0305 166.929 34.7577L167.326 35.2933C167.25 35.558 167.126 35.8027 166.953 36.0274C166.781 36.248 166.576 36.4385 166.339 36.599C166.107 36.7595 165.856 36.8838 165.587 36.9721C165.318 37.0603 165.05 37.1025 164.781 37.0984C164.416 37.0904 164.085 37.0082 163.788 36.8517C163.495 36.6953 163.263 36.4767 163.09 36.1959C162.922 35.911 162.849 35.5801 162.873 35.203C162.898 34.7898 163.006 34.4428 163.198 34.162C163.391 33.8812 163.638 33.6566 163.939 33.4881C164.243 33.3196 164.576 33.1992 164.937 33.127C165.298 33.0508 165.655 33.0127 166.008 33.0127L167.338 33.0187ZM172.155 27.7235L170.548 36.9661H169.459L171.06 27.7235H172.155ZM182.769 32.6035L182.252 35.8107C182.015 36.1397 181.72 36.3984 181.367 36.587C181.018 36.7715 180.643 36.9019 180.242 36.9781C179.841 37.0543 179.45 37.0904 179.069 37.0864C178.487 37.0784 177.996 36.954 177.594 36.7133C177.197 36.4726 176.882 36.1537 176.65 35.7566C176.417 35.3594 176.261 34.9162 176.18 34.4268C176.104 33.9374 176.1 33.4359 176.168 32.9224L176.265 32.2425C176.345 31.6929 176.485 31.1674 176.686 30.666C176.89 30.1605 177.159 29.7132 177.492 29.3241C177.829 28.931 178.232 28.6241 178.702 28.4035C179.171 28.1788 179.712 28.0725 180.326 28.0845C180.884 28.0966 181.361 28.2129 181.758 28.4335C182.16 28.6542 182.472 28.9631 182.697 29.3602C182.926 29.7573 183.06 30.2287 183.1 30.7743H181.981C181.953 30.4293 181.873 30.1284 181.74 29.8717C181.612 29.6149 181.425 29.4144 181.181 29.2699C180.94 29.1255 180.639 29.0473 180.278 29.0353C179.821 29.0192 179.424 29.1035 179.087 29.288C178.754 29.4685 178.473 29.7152 178.244 30.0281C178.02 30.337 177.839 30.684 177.703 31.0691C177.566 31.4502 177.468 31.8373 177.408 32.2305L177.306 32.9285C177.261 33.2694 177.249 33.6265 177.269 33.9995C177.294 34.3686 177.368 34.7136 177.492 35.0345C177.62 35.3554 177.815 35.6182 178.076 35.8228C178.337 36.0234 178.682 36.1277 179.111 36.1357C179.355 36.1397 179.596 36.1236 179.833 36.0875C180.074 36.0514 180.302 35.9873 180.519 35.895C180.735 35.8027 180.938 35.6723 181.127 35.5039L181.482 33.5422H179.508L179.676 32.6035H182.769ZM187.767 35.8529L188.308 32.4892C188.336 32.2405 188.312 32.0219 188.236 31.8333C188.164 31.6448 188.041 31.4983 187.869 31.394C187.7 31.2897 187.488 31.2336 187.231 31.2256C187.006 31.2216 186.786 31.2577 186.569 31.3339C186.356 31.4101 186.172 31.5244 186.015 31.6769C185.859 31.8293 185.757 32.0219 185.709 32.2545L184.626 32.2605C184.654 31.9356 184.756 31.6528 184.932 31.4121C185.109 31.1674 185.33 30.9648 185.594 30.8044C185.859 30.6399 186.144 30.5195 186.449 30.4433C186.754 30.3631 187.05 30.325 187.339 30.329C187.777 30.337 188.156 30.4313 188.477 30.6118C188.802 30.7883 189.046 31.037 189.211 31.3579C189.375 31.6789 189.435 32.064 189.391 32.5133L188.892 35.546C188.856 35.7666 188.834 35.9893 188.826 36.2139C188.822 36.4345 188.848 36.6512 188.904 36.8638L188.892 36.9661L187.791 36.9721C187.746 36.7876 187.724 36.601 187.724 36.4125C187.728 36.2239 187.742 36.0374 187.767 35.8529ZM188.434 33.0187L188.308 33.801L187.279 33.795C187.063 33.795 186.834 33.811 186.593 33.8431C186.352 33.8752 186.124 33.9354 185.907 34.0236C185.691 34.1119 185.508 34.2402 185.36 34.4087C185.211 34.5732 185.121 34.7878 185.089 35.0526C185.065 35.2692 185.091 35.4577 185.167 35.6182C185.247 35.7746 185.368 35.897 185.528 35.9852C185.689 36.0735 185.875 36.1196 186.088 36.1236C186.364 36.1277 186.637 36.0735 186.906 35.9612C187.175 35.8489 187.41 35.6884 187.61 35.4798C187.811 35.2712 187.949 35.0305 188.025 34.7577L188.422 35.2933C188.346 35.558 188.222 35.8027 188.049 36.0274C187.877 36.248 187.672 36.4385 187.436 36.599C187.203 36.7595 186.952 36.8838 186.683 36.9721C186.415 37.0603 186.146 37.1025 185.877 37.0984C185.512 37.0904 185.181 37.0082 184.884 36.8517C184.591 36.6953 184.359 36.4767 184.186 36.1959C184.018 35.911 183.946 35.5801 183.97 35.203C183.994 34.7898 184.102 34.4428 184.295 34.162C184.487 33.8812 184.734 33.6566 185.035 33.4881C185.34 33.3196 185.673 33.1992 186.034 33.127C186.395 33.0508 186.752 33.0127 187.105 33.0127L188.434 33.0187ZM192.499 31.5264L191.554 36.9661H190.465L191.596 30.4554H192.655L192.499 31.5264ZM194.611 30.4012L194.509 31.4482C194.425 31.4322 194.338 31.4181 194.25 31.4061C194.166 31.394 194.082 31.388 193.997 31.388C193.737 31.384 193.502 31.4241 193.293 31.5084C193.089 31.5886 192.906 31.7029 192.746 31.8514C192.589 31.9998 192.455 32.1743 192.343 32.3749C192.234 32.5754 192.148 32.7921 192.084 33.0247L191.741 33.2053C191.785 32.8803 191.857 32.5474 191.957 32.2064C192.062 31.8654 192.204 31.5505 192.385 31.2617C192.569 30.9728 192.8 30.7402 193.077 30.5637C193.357 30.3872 193.694 30.3049 194.088 30.317C194.176 30.317 194.262 30.325 194.346 30.341C194.435 30.3571 194.523 30.3771 194.611 30.4012ZM198.736 35.6362L200.108 27.7235H201.203L199.596 36.9661H198.603L198.736 35.6362ZM194.813 33.8311L194.825 33.7047C194.877 33.3035 194.973 32.9024 195.113 32.5012C195.258 32.1001 195.452 31.733 195.697 31.4001C195.942 31.0671 196.239 30.8023 196.588 30.6058C196.937 30.4092 197.344 30.317 197.809 30.329C198.226 30.341 198.575 30.4393 198.856 30.6238C199.137 30.8084 199.358 31.0531 199.518 31.3579C199.683 31.6588 199.793 31.9898 199.849 32.3508C199.909 32.7118 199.927 33.0749 199.903 33.4399L199.837 33.9935C199.769 34.3826 199.656 34.7637 199.5 35.1368C199.344 35.5099 199.141 35.8468 198.892 36.1477C198.648 36.4446 198.353 36.6792 198.008 36.8517C197.667 37.0242 197.276 37.1045 196.834 37.0924C196.409 37.0764 196.056 36.9661 195.775 36.7615C195.499 36.5569 195.282 36.2941 195.125 35.9732C194.973 35.6483 194.873 35.2993 194.825 34.9262C194.78 34.5491 194.776 34.1841 194.813 33.8311ZM195.932 33.6927L195.92 33.819C195.892 34.0597 195.882 34.3144 195.89 34.5832C195.902 34.848 195.948 35.0987 196.028 35.3354C196.108 35.568 196.239 35.7606 196.419 35.913C196.6 36.0615 196.844 36.1417 197.153 36.1537C197.482 36.1618 197.787 36.0875 198.068 35.9311C198.349 35.7746 198.589 35.566 198.79 35.3053C198.991 35.0445 199.135 34.7617 199.223 34.4569L199.458 32.9946C199.47 32.774 199.444 32.5634 199.38 32.3628C199.315 32.1582 199.219 31.9757 199.091 31.8153C198.966 31.6548 198.812 31.5264 198.628 31.4302C198.447 31.3299 198.244 31.2777 198.02 31.2737C197.683 31.2617 197.392 31.3279 197.147 31.4723C196.903 31.6127 196.696 31.8032 196.527 32.0439C196.363 32.2806 196.233 32.5434 196.136 32.8322C196.04 33.121 195.972 33.4078 195.932 33.6927ZM204.142 37.0864C203.697 37.0784 203.31 36.9901 202.981 36.8216C202.656 36.6492 202.389 36.4185 202.181 36.1297C201.976 35.8368 201.83 35.5039 201.741 35.1308C201.653 34.7577 201.627 34.3666 201.663 33.9574L201.687 33.6987C201.727 33.2815 201.83 32.8723 201.994 32.4711C202.159 32.066 202.377 31.7009 202.65 31.376C202.927 31.0511 203.252 30.7943 203.625 30.6058C204.002 30.4132 204.419 30.323 204.876 30.335C205.33 30.343 205.707 30.4393 206.008 30.6238C206.308 30.8084 206.543 31.0531 206.712 31.3579C206.884 31.6588 206.996 31.9978 207.049 32.3749C207.101 32.7479 207.105 33.131 207.061 33.5242L206.994 34.0236H202.271L202.415 33.115L206.02 33.121L206.038 33.0247C206.078 32.7359 206.062 32.4571 205.99 32.1883C205.917 31.9196 205.785 31.6989 205.592 31.5264C205.404 31.3499 205.149 31.2577 204.828 31.2496C204.495 31.2376 204.206 31.3058 203.962 31.4542C203.717 31.5986 203.512 31.7952 203.348 32.0439C203.183 32.2886 203.053 32.5574 202.957 32.8502C202.865 33.1391 202.8 33.4219 202.764 33.6987L202.74 33.9514C202.716 34.2081 202.724 34.4669 202.764 34.7276C202.804 34.9884 202.881 35.2271 202.993 35.4437C203.109 35.6563 203.27 35.8308 203.474 35.9672C203.679 36.0996 203.932 36.1698 204.232 36.1778C204.598 36.1858 204.924 36.1076 205.213 35.9431C205.506 35.7746 205.773 35.562 206.014 35.3053L206.633 35.8348C206.445 36.1116 206.22 36.3443 205.959 36.5328C205.699 36.7214 205.414 36.8618 205.105 36.954C204.796 37.0463 204.475 37.0904 204.142 37.0864ZM209.819 31.9115L208.941 36.9661H207.852L208.983 30.4554H210.012L209.819 31.9115ZM209.314 33.464L208.869 33.452C208.925 33.0628 209.027 32.6818 209.176 32.3087C209.328 31.9316 209.527 31.5926 209.771 31.2918C210.02 30.9909 210.315 30.7542 210.656 30.5817C211.001 30.4052 211.394 30.323 211.835 30.335C212.184 30.343 212.475 30.4112 212.708 30.5396C212.944 30.664 213.129 30.8344 213.261 31.0511C213.394 31.2677 213.482 31.5184 213.526 31.8032C213.57 32.084 213.574 32.3829 213.538 32.6998L212.828 36.9661H211.733L212.455 32.6818C212.483 32.421 212.473 32.1863 212.425 31.9777C212.381 31.7651 212.281 31.5966 212.124 31.4723C211.972 31.3439 211.751 31.2757 211.462 31.2677C211.157 31.2597 210.882 31.3178 210.638 31.4422C210.393 31.5665 210.178 31.737 209.994 31.9537C209.813 32.1663 209.665 32.405 209.549 32.6697C209.436 32.9305 209.358 33.1952 209.314 33.464Z" fill="white"/>
<path fill-rule="evenodd" clip-rule="evenodd" d="M24 48C37.2548 48 48 37.2548 48 24C48 10.7452 37.2548 0 24 0C10.7452 0 0 10.7452 0 24C0 30.8612 2.87918 37.05 7.49526 41.424C8.08984 41.0512 8.68027 40.6742 9.26615 40.293C9.3248 39.9639 9.39513 39.5653 9.47378 39.1119C9.5149 38.8804 9.5591 38.6352 9.61087 38.3794C9.65099 38.1735 9.69699 37.9618 9.74472 37.742L9.76469 37.6501C9.96246 36.7464 10.1699 35.731 10.3397 34.6667H10.2671C8.37285 34.7017 6.63539 34.1901 5.6319 33.0602C5.17355 32.5455 4.84917 31.9014 4.75323 31.1294C4.65121 30.304 4.80959 29.331 5.28012 28.2057L5.35317 27.9971L5.67298 28.0671C6.89574 28.3047 8.46113 28.6214 9.52705 30.004C10.0181 30.6397 10.4037 31.5041 10.5955 32.6987C10.6133 32.515 10.6293 32.3309 10.6433 32.1469C10.7258 31.0637 10.7451 29.9828 10.6567 28.9657C8.59508 28.153 6.94127 25.7409 6.4609 23.1092C6.27513 22.0905 6.25835 21.0382 6.47001 20.053C6.79283 18.55 7.61516 17.1994 9.01 16.2919L9.15619 16.1882L9.38613 16.3816C11.1982 17.8602 12.1072 19.9555 12.3539 22.2229C12.5869 24.3791 12.2123 26.6906 11.4449 28.7737L11.3249 29.0855C11.4751 30.076 11.5325 31.1274 11.5234 32.1849C11.5051 34.1995 11.2585 36.2324 10.9494 37.8906C10.9022 38.1495 10.8504 38.3993 10.794 38.6384C10.7316 38.8987 10.6647 39.1454 10.5961 39.3769L10.5819 39.4243C14.6626 36.6908 18.5016 33.7437 21.9554 30.5686C21.946 30.4399 21.9314 30.1897 21.9284 29.8475C21.9269 29.6846 21.9269 29.5049 21.9421 29.3069C21.957 29.1336 21.9831 28.9495 22.0105 28.7561C22.0282 28.6318 22.0463 28.5036 22.0624 28.372C22.1223 27.8919 22.1837 27.3759 22.2165 26.8523C20.9644 26.0101 19.901 24.8183 19.2086 23.5555C18.8706 22.9403 18.6209 22.3084 18.4747 21.7023C18.3178 21.0491 18.2661 20.4247 18.3483 19.8765C18.5051 18.8228 19.0549 18.0233 20.0934 17.7629C20.832 17.4812 21.6177 17.7554 22.3029 18.4102C22.9912 19.068 23.5729 20.1248 23.882 21.3384C24.3153 23.0507 24.1847 25.0613 23.0917 26.7086C23.1213 26.9646 23.1438 27.2213 23.1603 27.4751C23.1893 27.8984 23.2029 28.3095 23.1938 28.6933C23.1867 28.963 23.1784 29.2171 23.148 29.4481C25.3876 27.2974 27.4489 25.0448 29.2893 22.6859C29.7847 22.0523 30.1914 21.46 30.5528 20.8502L30.3927 20.545C29.5217 18.9324 29.0024 16.825 29.0283 14.8454C29.0405 13.9546 29.1623 13.0896 29.4029 12.313C29.6511 11.5136 30.0135 10.8009 30.5069 10.2482C31.2789 9.38021 32.3312 8.86713 33.6925 8.96001C34.559 8.94174 35.1574 9.45486 35.5046 10.2985C35.9964 11.4923 35.9476 13.4048 35.4284 15.2763C34.7874 17.5828 33.4125 19.7875 31.5636 20.6094C31.1214 21.488 30.6188 22.3009 29.9579 23.1929C29.6088 23.6637 29.2514 24.1308 28.8858 24.5941C29.0908 24.4987 29.3037 24.4057 29.5231 24.3153C29.8722 24.172 30.2361 24.0374 30.6104 23.9182C31.3077 22.558 32.5349 21.3509 33.9019 20.5661C34.5308 20.2053 35.1886 19.9343 35.8266 19.7744C36.4996 19.6054 37.1514 19.5475 37.7285 19.6327C38.8005 19.7911 39.6334 20.3546 39.9197 21.4433C40.2197 22.2199 40.2151 22.864 40.0141 23.3909C39.6928 24.2391 38.8279 24.7994 37.7057 25.1116C35.5327 25.7177 32.3837 25.3765 30.8259 24.7415L30.8253 24.7412C30.7593 24.7735 30.6937 24.8061 30.6286 24.8391C29.9478 25.1841 29.3387 25.5912 28.7974 25.953C28.6243 26.0687 28.4582 26.1797 28.2989 26.2826C28.014 26.467 27.7498 26.6175 27.5223 26.7471L27.5223 26.7471L27.5222 26.7472L27.5116 26.7532C27.1168 26.9764 26.8411 27.1164 26.742 27.1657C24.1986 30.0597 21.3428 32.7996 18.2555 35.3886C18.3518 35.3749 18.4521 35.3619 18.5563 35.3503C18.7243 35.3317 18.9009 35.3148 19.0844 35.2972C19.7144 35.2368 20.4261 35.1686 21.1525 35C21.3675 34.9498 21.5837 34.8942 21.7994 34.8319L21.8827 34.6502C22.8725 32.4193 24.6388 31.163 26.6275 30.595C27.4376 30.3651 28.2843 30.2479 29.1248 30.2342C30.4252 30.2144 31.7013 30.4322 32.8069 30.7352L33.1098 30.8052L32.9743 31.1737C32.0531 33.8294 30.3765 35.1572 28.5674 35.7298C26.3876 36.4192 23.9929 35.9881 22.4192 35.3969C21.8453 35.6873 21.251 35.9184 20.6713 36.1024C20.1978 36.2532 19.7394 36.3735 19.3069 36.4557C18.9765 36.5197 18.6644 36.573 18.3781 36.5897C18.0812 36.605 17.8177 36.5897 17.5939 36.5699C17.2871 36.5421 17.0611 36.5042 16.9311 36.4787C14.3234 38.5859 11.5651 40.5901 8.70176 42.4931C12.855 45.9327 18.1861 48 24 48ZM10.9601 27.4186C11.4983 25.7551 11.7613 23.9786 11.6291 22.2899C11.4722 20.2799 10.7596 18.3963 9.27646 16.9908C8.24404 17.8496 7.71414 19.0115 7.50705 20.2495C7.36086 21.1174 7.37604 22.0265 7.53289 22.9158C7.897 24.9848 8.996 26.9552 10.5111 27.8616C10.3961 27.2289 10.2271 26.6338 9.99156 26.0939C9.94283 25.9934 9.98548 25.8716 10.086 25.8229C10.188 25.7742 10.3099 25.8168 10.3586 25.9173C10.6014 26.3768 10.8 26.8811 10.9601 27.4186ZM22.4416 24.1494C22.5801 24.4412 22.695 24.7624 22.7897 25.1018C23.2784 23.9467 23.3198 22.6613 23.0901 21.518C22.8297 20.2222 22.2329 19.0969 21.4974 18.5457C21.1091 18.2548 20.6873 18.1239 20.2655 18.2579C19.6868 18.5228 19.4219 19.0101 19.3366 19.6024C19.2605 20.1339 19.3625 20.7445 19.568 21.3993C19.731 21.9139 19.9655 22.4485 20.2579 22.9799C20.7532 23.8808 21.4185 24.773 22.2255 25.4934C22.2019 25.0695 22.1485 24.6648 22.0472 24.2971C22.0076 24.1889 22.0624 24.0672 22.1705 24.026C22.2801 23.9865 22.4005 24.0413 22.4416 24.1494ZM24.1097 34.2798C23.9019 34.4599 23.6841 34.6272 23.4588 34.7826C24.8344 35.2304 26.6524 35.4928 28.3558 35.0172C29.9258 34.5771 31.3891 33.5035 32.3225 31.3762C31.1439 31.1935 29.8055 31.1707 28.4853 31.3413C27.5884 31.457 26.696 31.658 25.8707 32.0249C24.7991 32.5015 23.8372 33.2353 23.1337 34.3375C23.3823 34.2205 23.6248 34.0894 23.8585 33.9417C23.9513 33.8731 24.0838 33.893 24.1523 33.9859C24.2224 34.0788 24.2026 34.2097 24.1097 34.2798ZM32.2969 24.1333C33.8057 24.5482 35.9294 24.7384 37.5199 24.3791C38.9665 24.0502 39.9562 23.2447 39.4248 21.6199C39.1416 21.0032 38.6299 20.7154 38.0163 20.6226C37.4559 20.5373 36.8133 20.6454 36.1372 20.8647C35.5966 21.0383 35.0424 21.291 34.4987 21.6047C33.6285 22.1058 32.7917 22.7644 32.1563 23.5388C32.5888 23.4664 33.0266 23.4233 33.464 23.4184C33.5797 23.4093 33.6817 23.4945 33.6908 23.6102C33.7 23.726 33.6147 23.828 33.499 23.8371C33.0913 23.9018 32.6896 24.0043 32.2969 24.1333ZM32.9957 17.1385C32.7578 17.7985 32.5365 18.3895 32.3154 18.9355C33.3752 18.0202 34.169 16.5441 34.6488 15.0434C35.1878 13.3592 35.3325 11.6248 34.932 10.5208C34.7081 9.9071 34.3138 9.49902 33.6925 9.48532C32.7758 9.55079 32.0875 9.92841 31.5591 10.4857C31.0399 11.0339 30.7079 11.7771 30.4947 12.6207C30.3196 13.3151 30.2358 14.0749 30.2252 14.8606C30.2069 16.4976 30.5176 18.2381 31.1465 19.6527C31.1675 19.6446 31.1885 19.6363 31.2094 19.6278C31.5967 18.8338 31.9586 17.9598 32.3715 16.904C32.4354 16.7304 32.6288 16.6436 32.8008 16.7075C32.9744 16.773 33.0612 16.9664 32.9957 17.1385ZM5.89381 28.6625C5.67148 29.5625 5.66844 30.3208 5.79482 30.9634C5.90294 31.5116 6.12372 31.9669 6.44959 32.34C7.19269 33.1928 8.42302 33.6298 9.81024 33.7287C9.78284 32.2075 9.4509 31.1644 8.94078 30.435C8.13677 29.2838 6.91861 28.9168 5.89381 28.6625Z" fill="white"/>
</svg>
