<svg width="215" height="49" viewBox="0 0 215 49" fill="none" xmlns="http://www.w3.org/2000/svg">
<g clip-path="url(#clip0_522_300)">
<path d="M62.0074 8.5789H64.0957L68.0205 19.0482L71.936 8.5789H74.0242L68.8409 22.1526H67.1814L62.0074 8.5789ZM61.0565 8.5789H63.0422L63.3871 17.6405V22.1526H61.0565V8.5789ZM72.9894 8.5789H74.9844V22.1526H72.6445V17.6405L72.9894 8.5789ZM82.1703 8.5789V22.1526H79.8303V8.5789H82.1703ZM94.1293 18.6566C94.1293 18.3769 94.0858 18.1283 93.9988 17.9108C93.918 17.6933 93.772 17.4944 93.5606 17.3142C93.3493 17.1339 93.051 16.9599 92.6657 16.7921C92.2866 16.6181 91.8018 16.4409 91.2113 16.2607C90.565 16.0618 89.9683 15.8412 89.4214 15.5988C88.8807 15.3502 88.4084 15.0643 88.0044 14.7411C87.6004 14.4117 87.2865 14.0357 87.0628 13.6131C86.8391 13.1843 86.7272 12.6902 86.7272 12.1308C86.7272 11.5777 86.8422 11.0742 87.0721 10.6205C87.3083 10.1668 87.6408 9.7753 88.0696 9.4459C88.5047 9.11029 89.0174 8.85236 89.6079 8.67212C90.1983 8.48567 90.8509 8.39245 91.5656 8.39245C92.5724 8.39245 93.4394 8.5789 94.1666 8.9518C94.9 9.32471 95.4624 9.82502 95.854 10.4527C96.2518 11.0805 96.4506 11.7734 96.4506 12.5317H94.1293C94.1293 12.0842 94.033 11.6895 93.8403 11.3477C93.6539 10.9997 93.368 10.7262 92.9826 10.5273C92.6035 10.3284 92.1219 10.229 91.5376 10.229C90.9845 10.229 90.5246 10.3129 90.1579 10.4807C89.7912 10.6485 89.5177 10.8754 89.3375 11.1613C89.1573 11.4471 89.0672 11.7703 89.0672 12.1308C89.0672 12.3856 89.1262 12.6187 89.2443 12.83C89.3624 13.0351 89.5426 13.2278 89.785 13.408C90.0274 13.582 90.3319 13.7467 90.6986 13.9021C91.0653 14.0575 91.4972 14.2066 91.9944 14.3496C92.7465 14.5733 93.4022 14.8219 93.9615 15.0954C94.5209 15.3626 94.987 15.6672 95.3599 16.009C95.7328 16.3508 96.0125 16.7393 96.1989 17.1743C96.3854 17.6032 96.4786 18.091 96.4786 18.638C96.4786 19.2098 96.3636 19.7256 96.1337 20.1855C95.9037 20.6392 95.5743 21.0277 95.1455 21.3508C94.7229 21.6678 94.2132 21.9133 93.6166 22.0873C93.0261 22.2551 92.3673 22.339 91.6402 22.339C90.9876 22.339 90.3443 22.252 89.7104 22.078C89.0827 21.904 88.5109 21.6398 87.9951 21.2856C87.4792 20.9251 87.069 20.4776 86.7645 19.9431C86.4599 19.4024 86.3077 18.7716 86.3077 18.0506H88.6476C88.6476 18.4919 88.7222 18.8679 88.8714 19.1787C89.0268 19.4894 89.2412 19.7443 89.5146 19.9431C89.7881 20.1358 90.1051 20.2787 90.4655 20.372C90.8322 20.4652 91.2238 20.5118 91.6402 20.5118C92.1871 20.5118 92.6439 20.4341 93.0106 20.2787C93.3835 20.1234 93.6632 19.9058 93.8496 19.6262C94.0361 19.3465 94.1293 19.0233 94.1293 18.6566ZM106.042 8.5789V22.1526H103.72V8.5789H106.042ZM110.302 8.5789V10.4434H99.4973V8.5789H110.302ZM130.64 15.2166V20.3999C130.448 20.6548 130.146 20.9344 129.736 21.239C129.332 21.5373 128.794 21.7952 128.123 22.0127C127.452 22.2303 126.616 22.339 125.615 22.339C124.764 22.339 123.984 22.1961 123.275 21.9102C122.567 21.6181 121.955 21.1924 121.439 20.633C120.929 20.0737 120.535 19.3931 120.255 18.5914C119.975 17.7834 119.835 16.8636 119.835 15.8319V14.8903C119.835 13.8648 119.963 12.9512 120.218 12.1494C120.479 11.3415 120.852 10.6578 121.336 10.0985C121.821 9.53912 122.405 9.1165 123.089 8.83061C123.779 8.5385 124.559 8.39245 125.429 8.39245C126.541 8.39245 127.461 8.5789 128.188 8.9518C128.922 9.31849 129.487 9.82812 129.885 10.4807C130.283 11.1333 130.535 11.8791 130.64 12.7181H128.347C128.272 12.2458 128.126 11.8232 127.909 11.4503C127.697 11.0774 127.393 10.7852 126.995 10.5739C126.604 10.3564 126.094 10.2476 125.466 10.2476C124.926 10.2476 124.45 10.3502 124.04 10.5553C123.63 10.7604 123.288 11.0618 123.014 11.4596C122.747 11.8573 122.545 12.3421 122.408 12.9139C122.272 13.4857 122.203 14.1383 122.203 14.8716V15.8319C122.203 16.5777 122.281 17.2396 122.436 17.8176C122.598 18.3956 122.828 18.8835 123.126 19.2812C123.431 19.679 123.801 19.9804 124.236 20.1855C124.671 20.3844 125.162 20.4838 125.709 20.4838C126.243 20.4838 126.681 20.4403 127.023 20.3533C127.365 20.2601 127.635 20.1513 127.834 20.027C128.039 19.8965 128.198 19.7722 128.31 19.6541V16.9599H125.485V15.2166H130.64ZM140.427 10.3875L136.372 22.1526H133.92L139.029 8.5789H140.595L140.427 10.3875ZM143.821 22.1526L139.756 10.3875L139.579 8.5789H141.154L146.282 22.1526H143.821ZM143.625 17.1184V18.9736H136.241V17.1184H143.625ZM149.711 8.5789H154.512C155.543 8.5789 156.423 8.73427 157.15 9.04503C157.877 9.35578 158.433 9.81569 158.819 10.4248C159.21 11.0276 159.406 11.7734 159.406 12.6622C159.406 13.3396 159.282 13.9363 159.033 14.4521C158.785 14.968 158.433 15.403 157.98 15.7573C157.526 16.1053 156.985 16.3757 156.358 16.5684L155.649 16.9133H151.333L151.314 15.0581H154.549C155.108 15.0581 155.575 14.9587 155.947 14.7598C156.32 14.5609 156.6 14.2905 156.786 13.9487C156.979 13.6007 157.075 13.2091 157.075 12.7741C157.075 12.3017 156.982 11.8915 156.796 11.5435C156.616 11.1892 156.336 10.9189 155.957 10.7324C155.578 10.5397 155.096 10.4434 154.512 10.4434H152.051V22.1526H149.711V8.5789ZM157.458 22.1526L154.269 16.0556L156.721 16.0463L159.956 22.0314V22.1526H157.458ZM167.589 22.1526H164.69L164.709 20.2974H167.589C168.428 20.2974 169.131 20.114 169.696 19.7474C170.268 19.3807 170.697 18.8555 170.983 18.1718C171.275 17.4882 171.421 16.674 171.421 15.7293V14.9928C171.421 14.2595 171.337 13.61 171.169 13.0444C171.008 12.4788 170.765 12.0034 170.442 11.6181C170.125 11.2327 169.734 10.9406 169.268 10.7417C168.808 10.5429 168.276 10.4434 167.673 10.4434H164.634V8.5789H167.673C168.575 8.5789 169.398 8.73117 170.144 9.0357C170.89 9.33403 171.533 9.76597 172.074 10.3315C172.621 10.8971 173.04 11.5746 173.332 12.3639C173.624 13.1532 173.77 14.0357 173.77 15.0115V15.7293C173.77 16.7051 173.624 17.5876 173.332 18.3769C173.04 19.1663 172.621 19.8437 172.074 20.4093C171.527 20.9686 170.874 21.4006 170.116 21.7051C169.364 22.0034 168.522 22.1526 167.589 22.1526ZM165.986 8.5789V22.1526H163.646V8.5789H165.986ZM186.913 20.2974V22.1526H179.707V20.2974H186.913ZM180.369 8.5789V22.1526H178.029V8.5789H180.369ZM185.972 14.247V16.0743H179.707V14.247H185.972ZM186.867 8.5789V10.4434H179.707V8.5789H186.867ZM201.501 8.5789V22.1526H199.161L193.074 12.4291V22.1526H190.734V8.5789H193.074L199.18 18.321V8.5789H201.501ZM213.339 18.6566C213.339 18.3769 213.296 18.1283 213.209 17.9108C213.128 17.6933 212.982 17.4944 212.77 17.3142C212.559 17.1339 212.261 16.9599 211.875 16.7921C211.496 16.6181 211.012 16.4409 210.421 16.2607C209.775 16.0618 209.178 15.8412 208.631 15.5988C208.091 15.3502 207.618 15.0643 207.214 14.7411C206.81 14.4117 206.496 14.0357 206.273 13.6131C206.049 13.1843 205.937 12.6902 205.937 12.1308C205.937 11.5777 206.052 11.0742 206.282 10.6205C206.518 10.1668 206.851 9.7753 207.279 9.4459C207.715 9.11029 208.227 8.85236 208.818 8.67212C209.408 8.48567 210.061 8.39245 210.775 8.39245C211.782 8.39245 212.649 8.5789 213.376 8.9518C214.11 9.32471 214.672 9.82502 215.064 10.4527C215.462 11.0805 215.66 11.7734 215.66 12.5317H213.339C213.339 12.0842 213.243 11.6895 213.05 11.3477C212.864 10.9997 212.578 10.7262 212.192 10.5273C211.813 10.3284 211.332 10.229 210.747 10.229C210.194 10.229 209.734 10.3129 209.368 10.4807C209.001 10.6485 208.728 10.8754 208.547 11.1613C208.367 11.4471 208.277 11.7703 208.277 12.1308C208.277 12.3856 208.336 12.6187 208.454 12.83C208.572 13.0351 208.752 13.2278 208.995 13.408C209.237 13.582 209.542 13.7467 209.908 13.9021C210.275 14.0575 210.707 14.2066 211.204 14.3496C211.956 14.5733 212.612 14.8219 213.171 15.0954C213.731 15.3626 214.197 15.6672 214.57 16.009C214.943 16.3508 215.222 16.7393 215.409 17.1743C215.595 17.6032 215.688 18.091 215.688 18.638C215.688 19.2098 215.573 19.7256 215.343 20.1855C215.114 20.6392 214.784 21.0277 214.355 21.3508C213.933 21.6678 213.423 21.9133 212.826 22.0873C212.236 22.2551 211.577 22.339 210.85 22.339C210.197 22.339 209.554 22.252 208.92 22.078C208.293 21.904 207.721 21.6398 207.205 21.2856C206.689 20.9251 206.279 20.4776 205.974 19.9431C205.67 19.4024 205.517 18.7716 205.517 18.0506H207.857C207.857 18.4919 207.932 18.8679 208.081 19.1787C208.237 19.4894 208.451 19.7443 208.724 19.9431C208.998 20.1358 209.315 20.2787 209.675 20.372C210.042 20.4652 210.434 20.5118 210.85 20.5118C211.397 20.5118 211.854 20.4341 212.22 20.2787C212.593 20.1234 212.873 19.9058 213.059 19.6262C213.246 19.3465 213.339 19.0233 213.339 18.6566Z" fill="#343D33"/>
<path d="M61.9567 32.2155H63.0147L64.5772 39.4202L68.6325 32.2155H69.7999L64.7718 41.0679H63.9023L61.9567 32.2155ZM61.5737 32.2155H62.5526L61.7743 37.6509L61.1785 41.0679H60.0355L61.5737 32.2155ZM69.1432 32.2155H70.1282L68.59 41.0679H67.453L68.061 37.5537L69.1432 32.2155ZM74.7215 39.4871L75.5848 34.4894H76.6914L75.5483 41.0679H74.4965L74.7215 39.4871ZM75.1349 38.1617L75.5848 38.1434C75.5321 38.5569 75.4389 38.95 75.3051 39.3229C75.1714 39.6918 74.989 40.0201 74.758 40.3079C74.531 40.5916 74.2472 40.8145 73.9068 40.9767C73.5703 41.1348 73.1711 41.2077 72.709 41.1956C72.3483 41.1834 72.0463 41.1104 71.8031 40.9767C71.564 40.8429 71.3755 40.6625 71.2377 40.4356C71.0998 40.2086 71.0086 39.9492 70.9641 39.6573C70.9195 39.3655 70.9134 39.0574 70.9458 38.7332L71.6572 34.4894H72.7576L72.0463 38.7514C72.0301 38.9298 72.0281 39.1061 72.0402 39.2804C72.0524 39.4506 72.0889 39.6067 72.1497 39.7485C72.2105 39.8904 72.3037 40.0059 72.4293 40.0951C72.559 40.1802 72.7293 40.2268 72.94 40.2349C73.3778 40.2511 73.7487 40.1701 74.0527 39.9917C74.3567 39.8093 74.5978 39.558 74.7762 39.2378C74.9545 38.9176 75.0741 38.5589 75.1349 38.1617ZM81.388 39.2864C81.4245 39.0351 81.3779 38.8386 81.2482 38.6967C81.1225 38.5548 80.9563 38.4474 80.7496 38.3745C80.547 38.2974 80.3483 38.2346 80.1538 38.186C79.9106 38.1252 79.6654 38.0502 79.4181 37.961C79.1709 37.8718 78.9439 37.7584 78.7372 37.6205C78.5345 37.4787 78.3724 37.3044 78.2508 37.0977C78.1332 36.8869 78.0805 36.6315 78.0927 36.3316C78.1089 36.0073 78.194 35.7216 78.348 35.4743C78.5061 35.2271 78.7088 35.0203 78.956 34.8542C79.2073 34.688 79.4809 34.5644 79.7768 34.4833C80.0727 34.4022 80.3666 34.3637 80.6584 34.3678C81.0719 34.3759 81.4468 34.461 81.7832 34.6231C82.1237 34.7853 82.3932 35.0183 82.5918 35.3223C82.7905 35.6263 82.8837 35.9952 82.8715 36.4289L81.7832 36.4228C81.7913 36.1918 81.7447 35.9931 81.6434 35.827C81.542 35.6608 81.4022 35.5331 81.2239 35.4439C81.0455 35.3507 80.8428 35.3021 80.6159 35.298C80.401 35.2939 80.1903 35.3284 79.9835 35.4014C79.7768 35.4703 79.6005 35.5797 79.4546 35.7297C79.3087 35.8756 79.2195 36.0661 79.1871 36.3012C79.1628 36.4755 79.1891 36.6194 79.2661 36.7329C79.3431 36.8423 79.4485 36.9315 79.5823 37.0004C79.7201 37.0652 79.864 37.12 80.0139 37.1645C80.168 37.2051 80.3078 37.2416 80.4335 37.274C80.7658 37.3672 81.0941 37.4848 81.4184 37.6266C81.7427 37.7685 82.0061 37.9651 82.2088 38.2164C82.4115 38.4636 82.5027 38.7899 82.4824 39.1952C82.4662 39.5398 82.375 39.8397 82.2088 40.0951C82.0467 40.3464 81.8359 40.5551 81.5765 40.7213C81.3211 40.8834 81.0394 41.003 80.7314 41.08C80.4233 41.157 80.1153 41.1935 79.8072 41.1895C79.3816 41.1814 78.9844 41.0942 78.6156 40.928C78.2508 40.7578 77.9589 40.5146 77.74 40.1984C77.5212 39.8782 77.4178 39.4891 77.43 39.0311L78.5304 39.0372C78.5304 39.3006 78.5852 39.5236 78.6946 39.706C78.8081 39.8843 78.9641 40.0201 79.1628 40.1133C79.3614 40.2065 79.5883 40.2552 79.8437 40.2592C80.0585 40.2633 80.2774 40.2349 80.5003 40.1741C80.7273 40.1133 80.9219 40.012 81.084 39.8701C81.2502 39.7242 81.3515 39.5296 81.388 39.2864ZM86.4738 41.1895C86.0239 41.1814 85.6327 41.0922 85.3003 40.922C84.972 40.7477 84.7025 40.5146 84.4917 40.2228C84.285 39.9269 84.137 39.5904 84.0479 39.2135C83.9587 38.8365 83.9324 38.4413 83.9688 38.0279L83.9932 37.7665C84.0337 37.3449 84.137 36.9315 84.3032 36.5261C84.4694 36.1168 84.6903 35.7479 84.9659 35.4196C85.2456 35.0913 85.5739 34.8319 85.9509 34.6414C86.3319 34.4468 86.7534 34.3556 87.2155 34.3678C87.6735 34.3759 88.0546 34.4732 88.3586 34.6596C88.6626 34.8461 88.8997 35.0933 89.0699 35.4014C89.2442 35.7054 89.3577 36.0479 89.4104 36.4289C89.4631 36.8058 89.4671 37.1929 89.4225 37.5901L89.3557 38.0948H84.5829L84.7288 37.1767L88.3707 37.1828L88.389 37.0855C88.4295 36.7937 88.4133 36.512 88.3403 36.2404C88.2674 35.9688 88.1336 35.7459 87.939 35.5716C87.7485 35.3933 87.4911 35.3 87.1669 35.2919C86.8305 35.2798 86.5386 35.3487 86.2914 35.4986C86.0441 35.6446 85.8374 35.8432 85.6712 36.0945C85.505 36.3417 85.3733 36.6133 85.276 36.9092C85.1828 37.201 85.1179 37.4868 85.0815 37.7665L85.0571 38.0218C85.0328 38.2812 85.0409 38.5427 85.0815 38.8061C85.122 39.0696 85.199 39.3108 85.3125 39.5296C85.43 39.7445 85.5922 39.9208 85.7989 40.0586C86.0056 40.1924 86.261 40.2633 86.565 40.2714C86.9338 40.2795 87.2642 40.2005 87.556 40.0343C87.8519 39.864 88.1214 39.6492 88.3646 39.3898L88.9909 39.9248C88.8004 40.2045 88.5734 40.4396 88.3099 40.6301C88.0465 40.8206 87.7587 40.9625 87.4466 41.0557C87.1345 41.1489 86.8102 41.1935 86.4738 41.1895ZM94.4049 39.4871L95.2683 34.4894H96.3748L95.2318 41.0679H94.18L94.4049 39.4871ZM94.8184 38.1617L95.2683 38.1434C95.2156 38.5569 95.1224 38.95 94.9886 39.3229C94.8549 39.6918 94.6725 40.0201 94.4414 40.3079C94.2144 40.5916 93.9307 40.8145 93.5902 40.9767C93.2538 41.1348 92.8546 41.2077 92.3925 41.1956C92.0317 41.1834 91.7298 41.1104 91.4866 40.9767C91.2474 40.8429 91.0589 40.6625 90.9211 40.4356C90.7833 40.2086 90.6921 39.9492 90.6475 39.6573C90.6029 39.3655 90.5969 39.0574 90.6293 38.7332L91.3406 34.4894H92.4411L91.7298 38.7514C91.7136 38.9298 91.7115 39.1061 91.7237 39.2804C91.7358 39.4506 91.7723 39.6067 91.8331 39.7485C91.8939 39.8904 91.9871 40.0059 92.1128 40.0951C92.2425 40.1802 92.4127 40.2268 92.6235 40.2349C93.0613 40.2511 93.4321 40.1701 93.7361 39.9917C94.0401 39.8093 94.2813 39.558 94.4597 39.2378C94.638 38.9176 94.7576 38.5589 94.8184 38.1617ZM99.0043 35.8634L98.1045 41.0679H96.9979L98.141 34.4894H99.1867L99.0043 35.8634ZM98.5118 37.5293L98.0133 37.5172C98.07 37.1078 98.1713 36.7126 98.3173 36.3316C98.4632 35.9506 98.6577 35.6101 98.9009 35.3102C99.1482 35.0102 99.4461 34.7751 99.7947 34.6049C100.143 34.4346 100.547 34.3556 101.005 34.3678C101.345 34.3759 101.633 34.4428 101.868 34.5684C102.103 34.69 102.292 34.8582 102.433 35.073C102.579 35.2838 102.677 35.527 102.725 35.8026C102.778 36.0783 102.79 36.3721 102.762 36.6842L102.026 41.0679H100.926L101.655 36.7329C101.688 36.4572 101.671 36.214 101.607 36.0033C101.546 35.7925 101.43 35.6263 101.26 35.5047C101.09 35.3791 100.859 35.3122 100.567 35.3041C100.239 35.296 99.9528 35.3527 99.7096 35.4743C99.4704 35.5959 99.2698 35.7641 99.1077 35.979C98.9496 36.1897 98.8219 36.4309 98.7246 36.7025C98.6273 36.97 98.5564 37.2456 98.5118 37.5293ZM102.762 36.9092L101.971 37.1402C102.02 36.7633 102.121 36.4066 102.275 36.0702C102.433 35.7337 102.638 35.4358 102.889 35.1764C103.141 34.917 103.433 34.7143 103.765 34.5684C104.097 34.4225 104.464 34.3536 104.865 34.3617C105.222 34.3698 105.524 34.4367 105.771 34.5623C106.019 34.6839 106.215 34.8521 106.361 35.067C106.511 35.2818 106.61 35.5331 106.659 35.8209C106.712 36.1046 106.72 36.4127 106.683 36.745L105.96 41.0679H104.853L105.583 36.7268C105.615 36.4471 105.601 36.2019 105.54 35.9911C105.484 35.7803 105.37 35.6162 105.2 35.4986C105.03 35.377 104.794 35.3142 104.494 35.3102C104.255 35.3021 104.036 35.3385 103.838 35.4196C103.639 35.5007 103.467 35.6162 103.321 35.7662C103.175 35.9121 103.054 36.0823 102.956 36.2769C102.863 36.4714 102.798 36.6822 102.762 36.9092ZM113.28 36.1553L114.715 35.2129C114.962 35.0507 115.181 34.8704 115.371 34.6718C115.562 34.4732 115.673 34.2178 115.706 33.9057C115.734 33.6382 115.661 33.4213 115.487 33.2551C115.313 33.089 115.094 33.0038 114.83 32.9998C114.599 32.9998 114.394 33.0586 114.216 33.1761C114.042 33.2936 113.9 33.4477 113.79 33.6382C113.685 33.8287 113.62 34.0334 113.596 34.2522C113.568 34.4711 113.59 34.686 113.663 34.8967C113.736 35.1034 113.833 35.3041 113.955 35.4986C114.076 35.6891 114.194 35.8715 114.307 36.0458L117.584 41.0679H116.35L113.663 36.9578C113.484 36.6944 113.302 36.4228 113.116 36.1431C112.929 35.8594 112.775 35.5635 112.654 35.2554C112.536 34.9474 112.487 34.6252 112.508 34.2887C112.54 33.8469 112.66 33.4598 112.866 33.1275C113.077 32.791 113.357 32.5316 113.705 32.3492C114.054 32.1668 114.451 32.0817 114.897 32.0939C115.242 32.102 115.558 32.181 115.846 32.331C116.133 32.481 116.358 32.6917 116.52 32.9633C116.687 33.2308 116.76 33.547 116.739 33.9118C116.723 34.2117 116.646 34.4813 116.508 34.7204C116.374 34.9595 116.204 35.1744 115.998 35.3649C115.791 35.5554 115.572 35.7317 115.341 35.8938L113.426 37.201C113.251 37.3226 113.079 37.4604 112.909 37.6145C112.739 37.7644 112.591 37.9326 112.465 38.1191C112.343 38.3055 112.268 38.5102 112.24 38.7332C112.2 39.0412 112.234 39.3087 112.343 39.5357C112.453 39.7627 112.619 39.9411 112.842 40.0708C113.065 40.1964 113.328 40.2633 113.632 40.2714C114.07 40.2836 114.467 40.1944 114.824 40.0039C115.185 39.8093 115.499 39.5499 115.766 39.2256C116.038 38.8973 116.257 38.5386 116.423 38.1495C116.589 37.7563 116.701 37.3672 116.758 36.9821H117.73C117.686 37.3875 117.603 37.7604 117.481 38.1009C117.359 38.4373 117.199 38.7575 117.001 39.0615C116.802 39.3614 116.569 39.6593 116.302 39.9552C116.265 39.9958 116.231 40.0404 116.198 40.089C116.17 40.1336 116.137 40.1761 116.101 40.2167C115.801 40.5531 115.416 40.8024 114.946 40.9645C114.48 41.1226 114.026 41.1976 113.584 41.1895C113.105 41.1773 112.674 41.0719 112.289 40.8733C111.904 40.6747 111.604 40.395 111.389 40.0343C111.174 39.6695 111.085 39.2358 111.121 38.7332C111.154 38.3157 111.282 37.9529 111.504 37.6449C111.731 37.3328 112.005 37.0571 112.325 36.818C112.645 36.5788 112.964 36.3579 113.28 36.1553ZM125.756 36.9274H123.512L123.664 35.985L125.579 35.9911C125.891 35.9911 126.185 35.9364 126.461 35.827C126.741 35.7175 126.974 35.5534 127.16 35.3345C127.351 35.1156 127.466 34.84 127.507 34.5076C127.547 34.1914 127.515 33.9381 127.409 33.7476C127.304 33.5531 127.142 33.4132 126.923 33.3281C126.708 33.2389 126.455 33.1903 126.163 33.1822L124.424 33.1761L123.056 41.0679H121.907L123.445 32.2155L126.187 32.2215C126.556 32.2297 126.897 32.2803 127.209 32.3735C127.525 32.4627 127.796 32.6005 128.023 32.787C128.25 32.9694 128.421 33.2045 128.534 33.4923C128.652 33.78 128.694 34.1246 128.662 34.5258C128.629 34.9595 128.492 35.3243 128.248 35.6202C128.009 35.9161 127.707 36.1492 127.342 36.3194C126.982 36.4856 126.607 36.5951 126.218 36.6477L125.756 36.9274ZM124.996 41.0679H122.308L123.117 40.1133L125.026 40.1194C125.371 40.1194 125.689 40.0566 125.981 39.9309C126.272 39.8053 126.514 39.6208 126.704 39.3776C126.899 39.1344 127.018 38.8345 127.063 38.4778C127.099 38.1617 127.075 37.8901 126.99 37.6631C126.905 37.4361 126.759 37.2618 126.552 37.1402C126.345 37.0146 126.082 36.9457 125.762 36.9335L124.065 36.9274L124.242 35.985L126.4 35.9911L126.589 36.3316C126.953 36.3883 127.259 36.518 127.507 36.7207C127.758 36.9193 127.94 37.1706 128.054 37.4746C128.171 37.7746 128.218 38.1049 128.194 38.4657C128.149 39.0453 127.975 39.5296 127.671 39.9188C127.371 40.3038 126.986 40.5936 126.516 40.7882C126.045 40.9787 125.539 41.0719 124.996 41.0679ZM129.68 37.8881L129.698 37.7482C129.747 37.3064 129.856 36.8808 130.027 36.4714C130.201 36.062 130.43 35.6972 130.714 35.377C130.997 35.0568 131.334 34.8055 131.723 34.6231C132.112 34.4407 132.546 34.3556 133.024 34.3678C133.486 34.3759 133.881 34.4752 134.21 34.6657C134.542 34.8562 134.81 35.1095 135.012 35.4257C135.219 35.7378 135.363 36.0904 135.444 36.4836C135.525 36.8768 135.545 37.2821 135.505 37.6996L135.493 37.8394C135.44 38.2812 135.326 38.7048 135.152 39.1101C134.978 39.5155 134.747 39.8762 134.459 40.1924C134.175 40.5085 133.839 40.7578 133.45 40.9402C133.061 41.1185 132.629 41.2016 132.155 41.1895C131.697 41.1814 131.301 41.0841 130.969 40.8976C130.641 40.7071 130.375 40.4558 130.173 40.1437C129.97 39.8316 129.828 39.481 129.747 39.0919C129.666 38.7028 129.644 38.3015 129.68 37.8881ZM130.793 37.7482L130.781 37.8941C130.752 38.1495 130.75 38.415 130.774 38.6906C130.803 38.9662 130.868 39.2216 130.969 39.4567C131.074 39.6918 131.226 39.8843 131.425 40.0343C131.624 40.1843 131.881 40.2633 132.197 40.2714C132.534 40.2795 132.829 40.2147 133.085 40.0768C133.34 39.935 133.557 39.7445 133.735 39.5053C133.918 39.2662 134.062 39.0007 134.167 38.7089C134.277 38.417 134.349 38.1272 134.386 37.8394L134.398 37.6996C134.426 37.4442 134.426 37.1787 134.398 36.9031C134.374 36.6234 134.309 36.364 134.204 36.1249C134.102 35.8817 133.952 35.6851 133.754 35.5351C133.555 35.3811 133.298 35.3 132.981 35.2919C132.645 35.2798 132.347 35.3466 132.088 35.4926C131.832 35.6344 131.616 35.827 131.437 36.0702C131.259 36.3134 131.115 36.5829 131.006 36.8788C130.9 37.1706 130.829 37.4604 130.793 37.7482ZM140.238 34.4894L140.086 35.3527H136.626L136.778 34.4894H140.238ZM138.225 32.8903H139.32L138.207 39.4506C138.195 39.5925 138.199 39.7201 138.219 39.8336C138.24 39.9471 138.288 40.0383 138.365 40.1072C138.442 40.1721 138.56 40.2065 138.718 40.2106C138.807 40.2106 138.894 40.2045 138.979 40.1924C139.068 40.1761 139.158 40.162 139.247 40.1498L139.168 41.074C139.038 41.1104 138.904 41.1368 138.766 41.153C138.633 41.1733 138.499 41.1814 138.365 41.1773C138.029 41.1733 137.765 41.0881 137.575 40.922C137.384 40.7558 137.255 40.5409 137.186 40.2775C137.117 40.014 137.096 39.7323 137.125 39.4324L138.225 32.8903ZM144.466 39.9431L145.013 36.5444C145.042 36.2931 145.018 36.0722 144.941 35.8817C144.868 35.6912 144.744 35.5432 144.57 35.4378C144.399 35.3325 144.185 35.2757 143.925 35.2676C143.698 35.2635 143.475 35.3 143.256 35.377C143.042 35.4541 142.855 35.5696 142.697 35.7236C142.539 35.8776 142.436 36.0722 142.387 36.3073L141.293 36.3134C141.321 35.985 141.424 35.6993 141.603 35.4561C141.781 35.2088 142.004 35.0041 142.271 34.842C142.539 34.6758 142.827 34.5542 143.135 34.4772C143.443 34.3961 143.743 34.3576 144.035 34.3617C144.476 34.3698 144.859 34.465 145.184 34.6474C145.512 34.8258 145.759 35.0771 145.925 35.4014C146.092 35.7256 146.152 36.1147 146.108 36.5687L145.603 39.633C145.567 39.8559 145.544 40.0809 145.536 40.3079C145.532 40.5308 145.559 40.7497 145.615 40.9645L145.603 41.0679L144.491 41.074C144.446 40.8875 144.424 40.699 144.424 40.5085C144.428 40.318 144.442 40.1295 144.466 39.9431ZM145.141 37.0794L145.013 37.8698L143.974 37.8637C143.755 37.8637 143.524 37.88 143.281 37.9124C143.037 37.9448 142.806 38.0056 142.588 38.0948C142.369 38.1839 142.184 38.3137 142.034 38.4839C141.884 38.6501 141.793 38.8669 141.761 39.1344C141.736 39.3533 141.763 39.5438 141.84 39.706C141.921 39.864 142.042 39.9877 142.205 40.0768C142.367 40.166 142.555 40.2126 142.77 40.2167C143.05 40.2207 143.325 40.166 143.597 40.0525C143.868 39.939 144.106 39.7769 144.308 39.5661C144.511 39.3554 144.651 39.1122 144.728 38.8365L145.129 39.3776C145.052 39.6452 144.926 39.8924 144.752 40.1194C144.578 40.3423 144.371 40.5349 144.132 40.697C143.897 40.8591 143.643 40.9848 143.372 41.074C143.1 41.1631 142.829 41.2057 142.557 41.2016C142.188 41.1935 141.854 41.1104 141.554 40.9524C141.258 40.7943 141.023 40.5734 140.849 40.2896C140.678 40.0019 140.606 39.6675 140.63 39.2864C140.654 38.869 140.764 38.5183 140.958 38.2346C141.153 37.9509 141.402 37.7239 141.706 37.5537C142.014 37.3834 142.35 37.2618 142.715 37.1889C143.08 37.1119 143.441 37.0733 143.797 37.0733L145.141 37.0794ZM149.181 35.9607L148.293 41.0679H147.193L148.336 34.4894H149.376L149.181 35.9607ZM148.67 37.5293L148.221 37.5172C148.277 37.124 148.381 36.7389 148.531 36.362C148.685 35.981 148.885 35.6385 149.133 35.3345C149.384 35.0305 149.682 34.7913 150.026 34.617C150.375 34.4387 150.772 34.3556 151.218 34.3678C151.571 34.3759 151.864 34.4448 152.1 34.5745C152.339 34.7001 152.525 34.8724 152.659 35.0913C152.793 35.3102 152.882 35.5635 152.926 35.8513C152.971 36.135 152.975 36.437 152.939 36.7572L152.221 41.0679H151.115L151.844 36.7389C151.873 36.4755 151.862 36.2384 151.814 36.0276C151.769 35.8128 151.668 35.6425 151.51 35.5169C151.356 35.3872 151.133 35.3183 150.841 35.3102C150.533 35.3021 150.255 35.3608 150.008 35.4865C149.761 35.6121 149.544 35.7844 149.357 36.0033C149.175 36.2181 149.025 36.4593 148.908 36.7268C148.794 36.9903 148.715 37.2578 148.67 37.5293ZM156.328 34.4894L155.185 41.0679H154.085L155.228 34.4894H156.328ZM155.446 32.7627C155.446 32.5722 155.505 32.4141 155.623 32.2884C155.744 32.1587 155.9 32.0918 156.091 32.0878C156.281 32.0837 156.437 32.1425 156.559 32.2641C156.685 32.3857 156.746 32.5397 156.741 32.7262C156.741 32.9126 156.679 33.0687 156.553 33.1943C156.431 33.3159 156.277 33.3788 156.091 33.3828C155.904 33.3869 155.75 33.3321 155.629 33.2187C155.507 33.1011 155.446 32.9491 155.446 32.7627ZM159.803 40.2714C160.07 40.2755 160.319 40.2248 160.55 40.1194C160.781 40.014 160.978 39.864 161.14 39.6695C161.302 39.4749 161.418 39.25 161.487 38.9946L162.532 38.9885C162.468 39.4303 162.295 39.8174 162.016 40.1498C161.74 40.4822 161.402 40.7416 161 40.928C160.603 41.1104 160.188 41.1976 159.754 41.1895C159.292 41.1814 158.899 41.0861 158.574 40.9037C158.254 40.7173 157.997 40.47 157.802 40.162C157.608 39.8539 157.474 39.5074 157.401 39.1223C157.328 38.7332 157.312 38.3339 157.352 37.9245L157.377 37.6631C157.425 37.2213 157.533 36.8018 157.699 36.4045C157.865 36.0033 158.086 35.6486 158.362 35.3406C158.641 35.0285 158.972 34.7853 159.353 34.611C159.734 34.4367 160.161 34.3556 160.636 34.3678C161.098 34.3759 161.499 34.4853 161.839 34.6961C162.18 34.9028 162.443 35.1845 162.63 35.5412C162.816 35.8979 162.909 36.3032 162.909 36.7572L161.876 36.7511C161.872 36.4917 161.821 36.2526 161.724 36.0337C161.627 35.8148 161.483 35.6385 161.292 35.5047C161.102 35.371 160.867 35.298 160.587 35.2858C160.25 35.2777 159.957 35.3406 159.705 35.4743C159.458 35.6081 159.247 35.7925 159.073 36.0276C158.903 36.2586 158.767 36.516 158.666 36.7997C158.568 37.0835 158.501 37.3713 158.465 37.6631L158.435 37.9185C158.41 38.1779 158.406 38.4434 158.422 38.7149C158.443 38.9865 158.499 39.2398 158.593 39.4749C158.686 39.706 158.83 39.8944 159.024 40.0404C159.219 40.1863 159.478 40.2633 159.803 40.2714ZM167.484 39.9431L168.032 36.5444C168.06 36.2931 168.036 36.0722 167.959 35.8817C167.886 35.6912 167.762 35.5432 167.588 35.4378C167.418 35.3325 167.203 35.2757 166.943 35.2676C166.716 35.2635 166.493 35.3 166.275 35.377C166.06 35.4541 165.873 35.5696 165.715 35.7236C165.557 35.8776 165.454 36.0722 165.405 36.3073L164.311 36.3134C164.339 35.985 164.442 35.6993 164.621 35.4561C164.799 35.2088 165.022 35.0041 165.29 34.842C165.557 34.6758 165.845 34.5542 166.153 34.4772C166.461 34.3961 166.761 34.3576 167.053 34.3617C167.495 34.3698 167.878 34.465 168.202 34.6474C168.53 34.8258 168.777 35.0771 168.944 35.4014C169.11 35.7256 169.171 36.1147 169.126 36.5687L168.621 39.633C168.585 39.8559 168.563 40.0809 168.555 40.3079C168.55 40.5308 168.577 40.7497 168.634 40.9645L168.621 41.0679L167.509 41.074C167.464 40.8875 167.442 40.699 167.442 40.5085C167.446 40.318 167.46 40.1295 167.484 39.9431ZM168.159 37.0794L168.032 37.8698L166.992 37.8637C166.773 37.8637 166.542 37.88 166.299 37.9124C166.056 37.9448 165.825 38.0056 165.606 38.0948C165.387 38.1839 165.202 38.3137 165.052 38.4839C164.903 38.6501 164.811 38.8669 164.779 39.1344C164.755 39.3533 164.781 39.5438 164.858 39.706C164.939 39.864 165.061 39.9877 165.223 40.0768C165.385 40.166 165.573 40.2126 165.788 40.2167C166.068 40.2207 166.343 40.166 166.615 40.0525C166.887 39.939 167.124 39.7769 167.326 39.5661C167.529 39.3554 167.669 39.1122 167.746 38.8365L168.147 39.3776C168.07 39.6452 167.945 39.8924 167.77 40.1194C167.596 40.3423 167.389 40.5349 167.15 40.697C166.915 40.8591 166.662 40.9848 166.39 41.074C166.119 41.1631 165.847 41.2057 165.575 41.2016C165.207 41.1935 164.872 41.1104 164.572 40.9524C164.276 40.7943 164.041 40.5734 163.867 40.2896C163.697 40.0019 163.624 39.6675 163.648 39.2864C163.672 38.869 163.782 38.5183 163.976 38.2346C164.171 37.9509 164.42 37.7239 164.724 37.5537C165.032 37.3834 165.369 37.2618 165.733 37.1889C166.098 37.1119 166.459 37.0733 166.816 37.0733L168.159 37.0794ZM173.026 31.7291L171.403 41.0679H170.302L171.92 31.7291H173.026ZM183.751 36.6599L183.228 39.9005C182.989 40.2329 182.691 40.4943 182.334 40.6848C181.982 40.8713 181.603 41.003 181.197 41.08C180.792 41.157 180.397 41.1935 180.012 41.1895C179.424 41.1814 178.928 41.0557 178.522 40.8125C178.121 40.5693 177.803 40.2471 177.568 39.8458C177.333 39.4445 177.175 38.9966 177.093 38.5021C177.016 38.0076 177.012 37.501 177.081 36.9821L177.179 36.2951C177.26 35.7398 177.402 35.2088 177.604 34.7022C177.811 34.1914 178.082 33.7395 178.419 33.3463C178.759 32.9491 179.167 32.639 179.641 32.4161C180.115 32.1891 180.662 32.0817 181.283 32.0939C181.846 32.106 182.328 32.2236 182.73 32.4465C183.135 32.6694 183.451 32.9815 183.678 33.3828C183.909 33.7841 184.045 34.2604 184.085 34.8116H182.955C182.926 34.463 182.845 34.159 182.711 33.8996C182.582 33.6402 182.393 33.4375 182.146 33.2916C181.903 33.1457 181.599 33.0667 181.234 33.0545C180.772 33.0383 180.371 33.1234 180.03 33.3099C179.694 33.4923 179.41 33.7415 179.179 34.0577C178.952 34.3698 178.77 34.7204 178.632 35.1095C178.494 35.4946 178.395 35.8857 178.334 36.283L178.23 36.9882C178.186 37.3328 178.174 37.6935 178.194 38.0705C178.218 38.4434 178.293 38.7919 178.419 39.1162C178.549 39.4405 178.745 39.706 179.009 39.9127C179.272 40.1153 179.621 40.2207 180.054 40.2288C180.302 40.2329 180.545 40.2167 180.784 40.1802C181.027 40.1437 181.258 40.0789 181.477 39.9856C181.696 39.8924 181.901 39.7607 182.091 39.5904L182.45 37.6084H180.456L180.626 36.6599H183.751ZM188.8 39.9431L189.347 36.5444C189.376 36.2931 189.352 36.0722 189.275 35.8817C189.202 35.6912 189.078 35.5432 188.904 35.4378C188.733 35.3325 188.519 35.2757 188.259 35.2676C188.032 35.2635 187.809 35.3 187.59 35.377C187.376 35.4541 187.189 35.5696 187.031 35.7236C186.873 35.8776 186.77 36.0722 186.721 36.3073L185.627 36.3134C185.655 35.985 185.758 35.6993 185.937 35.4561C186.115 35.2088 186.338 35.0041 186.605 34.842C186.873 34.6758 187.161 34.5542 187.469 34.4772C187.777 34.3961 188.077 34.3576 188.369 34.3617C188.81 34.3698 189.193 34.465 189.518 34.6474C189.846 34.8258 190.093 35.0771 190.259 35.4014C190.426 35.7256 190.486 36.1147 190.442 36.5687L189.937 39.633C189.901 39.8559 189.878 40.0809 189.87 40.3079C189.866 40.5308 189.893 40.7497 189.949 40.9645L189.937 41.0679L188.825 41.074C188.78 40.8875 188.758 40.699 188.758 40.5085C188.762 40.318 188.776 40.1295 188.8 39.9431ZM189.475 37.0794L189.347 37.8698L188.308 37.8637C188.089 37.8637 187.858 37.88 187.615 37.9124C187.372 37.9448 187.14 38.0056 186.922 38.0948C186.703 38.1839 186.518 38.3137 186.368 38.4839C186.218 38.6501 186.127 38.8669 186.095 39.1344C186.07 39.3533 186.097 39.5438 186.174 39.706C186.255 39.864 186.376 39.9877 186.539 40.0768C186.701 40.166 186.889 40.2126 187.104 40.2167C187.384 40.2207 187.659 40.166 187.931 40.0525C188.202 39.939 188.44 39.7769 188.642 39.5661C188.845 39.3554 188.985 39.1122 189.062 38.8365L189.463 39.3776C189.386 39.6452 189.26 39.8924 189.086 40.1194C188.912 40.3423 188.705 40.5349 188.466 40.697C188.231 40.8591 187.977 40.9848 187.706 41.074C187.434 41.1631 187.163 41.2057 186.891 41.2016C186.522 41.1935 186.188 41.1104 185.888 40.9524C185.592 40.7943 185.357 40.5734 185.183 40.2896C185.012 40.0019 184.94 39.6675 184.964 39.2864C184.988 38.869 185.098 38.5183 185.292 38.2346C185.487 37.9509 185.736 37.7239 186.04 37.5537C186.348 37.3834 186.684 37.2618 187.049 37.1889C187.414 37.1119 187.775 37.0733 188.131 37.0733L189.475 37.0794ZM193.582 35.5716L192.628 41.0679H191.527L192.67 34.4894H193.74L193.582 35.5716ZM195.716 34.4346L195.613 35.4926C195.528 35.4763 195.44 35.4622 195.351 35.45C195.266 35.4378 195.181 35.4318 195.096 35.4318C194.832 35.4277 194.595 35.4682 194.385 35.5534C194.178 35.6344 193.993 35.7499 193.831 35.8999C193.673 36.0499 193.537 36.2262 193.424 36.4289C193.315 36.6315 193.227 36.8504 193.163 37.0855L192.816 37.2679C192.861 36.9396 192.934 36.6032 193.035 36.2586C193.14 35.9141 193.284 35.5959 193.467 35.3041C193.653 35.0122 193.886 34.7772 194.166 34.5988C194.449 34.4205 194.79 34.3374 195.187 34.3495C195.276 34.3495 195.363 34.3576 195.449 34.3738C195.538 34.3901 195.627 34.4103 195.716 34.4346ZM199.884 39.7242L201.27 31.7291H202.377L200.753 41.0679H199.75L199.884 39.7242ZM195.92 37.9002L195.932 37.7725C195.985 37.3672 196.082 36.9619 196.224 36.5565C196.37 36.1512 196.566 35.7803 196.813 35.4439C197.061 35.1075 197.361 34.84 197.713 34.6414C198.066 34.4428 198.477 34.3495 198.947 34.3617C199.369 34.3738 199.722 34.4732 200.005 34.6596C200.289 34.8461 200.512 35.0933 200.674 35.4014C200.84 35.7054 200.952 36.0398 201.009 36.4045C201.069 36.7693 201.088 37.1362 201.063 37.505L200.996 38.0644C200.928 38.4575 200.814 38.8426 200.656 39.2196C200.498 39.5965 200.293 39.937 200.042 40.241C199.795 40.5409 199.497 40.7781 199.148 40.9524C198.804 41.1266 198.408 41.2077 197.963 41.1956C197.533 41.1793 197.176 41.0679 196.892 40.8612C196.613 40.6544 196.394 40.3889 196.236 40.0647C196.082 39.7364 195.98 39.3837 195.932 39.0068C195.887 38.6258 195.883 38.2569 195.92 37.9002ZM197.051 37.7604L197.038 37.8881C197.01 38.1313 197 38.3886 197.008 38.6602C197.02 38.9277 197.067 39.1811 197.148 39.4202C197.229 39.6553 197.361 39.8499 197.543 40.0039C197.725 40.1539 197.973 40.2349 198.285 40.2471C198.617 40.2552 198.925 40.1802 199.209 40.0221C199.493 39.864 199.736 39.6533 199.939 39.3898C200.141 39.1263 200.287 38.8406 200.376 38.5325L200.613 37.0551C200.626 36.8322 200.599 36.6194 200.534 36.4167C200.469 36.21 200.372 36.0256 200.243 35.8634C200.117 35.7013 199.961 35.5716 199.774 35.4743C199.592 35.373 199.387 35.3203 199.16 35.3162C198.82 35.3041 198.526 35.371 198.279 35.5169C198.031 35.6587 197.823 35.8513 197.652 36.0945C197.486 36.3336 197.355 36.5991 197.257 36.8909C197.16 37.1828 197.091 37.4726 197.051 37.7604ZM205.347 41.1895C204.897 41.1814 204.505 41.0922 204.173 40.922C203.845 40.7477 203.575 40.5146 203.364 40.2228C203.158 39.9269 203.01 39.5904 202.921 39.2135C202.831 38.8365 202.805 38.4413 202.842 38.0279L202.866 37.7665C202.906 37.3449 203.01 36.9315 203.176 36.5261C203.342 36.1168 203.563 35.7479 203.839 35.4196C204.118 35.0913 204.447 34.8319 204.824 34.6414C205.205 34.4468 205.626 34.3556 206.088 34.3678C206.546 34.3759 206.927 34.4732 207.231 34.6596C207.535 34.8461 207.772 35.0933 207.943 35.4014C208.117 35.7054 208.23 36.0479 208.283 36.4289C208.336 36.8058 208.34 37.1929 208.295 37.5901L208.228 38.0948H203.456L203.602 37.1767L207.243 37.1828L207.262 37.0855C207.302 36.7937 207.286 36.512 207.213 36.2404C207.14 35.9688 207.006 35.7459 206.812 35.5716C206.621 35.3933 206.364 35.3 206.04 35.2919C205.703 35.2798 205.411 35.3487 205.164 35.4986C204.917 35.6446 204.71 35.8432 204.544 36.0945C204.378 36.3417 204.246 36.6133 204.149 36.9092C204.056 37.201 203.991 37.4868 203.954 37.7665L203.93 38.0218C203.906 38.2812 203.914 38.5427 203.954 38.8061C203.995 39.0696 204.072 39.3108 204.185 39.5296C204.303 39.7445 204.465 39.9208 204.672 40.0586C204.878 40.1924 205.134 40.2633 205.438 40.2714C205.807 40.2795 206.137 40.2005 206.429 40.0343C206.725 39.864 206.994 39.6492 207.237 39.3898L207.864 39.9248C207.673 40.2045 207.446 40.4396 207.183 40.6301C206.919 40.8206 206.631 40.9625 206.319 41.0557C206.007 41.1489 205.683 41.1935 205.347 41.1895ZM211.083 35.9607L210.195 41.0679H209.095L210.238 34.4894H211.277L211.083 35.9607ZM210.572 37.5293L210.122 37.5172C210.179 37.124 210.282 36.7389 210.432 36.362C210.586 35.981 210.787 35.6385 211.034 35.3345C211.285 35.0305 211.583 34.7913 211.928 34.617C212.277 34.4387 212.674 34.3556 213.12 34.3678C213.472 34.3759 213.766 34.4448 214.001 34.5745C214.24 34.7001 214.427 34.8724 214.561 35.0913C214.694 35.3102 214.783 35.5635 214.828 35.8513C214.873 36.135 214.877 36.437 214.84 36.7572L214.123 41.0679H213.016L213.746 36.7389C213.774 36.4755 213.764 36.2384 213.715 36.0276C213.671 35.8128 213.57 35.6425 213.411 35.5169C213.257 35.3872 213.034 35.3183 212.743 35.3102C212.435 35.3021 212.157 35.3608 211.91 35.4865C211.662 35.6121 211.446 35.7844 211.259 36.0033C211.077 36.2181 210.927 36.4593 210.809 36.7268C210.696 36.9903 210.617 37.2578 210.572 37.5293Z" fill="#333333"/>
</g>
<path fill-rule="evenodd" clip-rule="evenodd" d="M24.116 49C37.4348 49 48.2319 38.031 48.2319 24.5C48.2319 10.969 37.4348 0 24.116 0C10.7971 0 0 10.969 0 24.5C0 31.504 2.89291 37.8215 7.53104 42.2866C8.12815 41.9063 8.7211 41.5216 9.30948 41.1326C9.36842 40.7967 9.4391 40.3897 9.51815 39.9268C9.55946 39.6905 9.60387 39.4402 9.6559 39.179C9.69621 38.9688 9.74244 38.7526 9.79041 38.5283L9.81046 38.4345C10.0092 37.512 10.2176 36.4754 10.3882 35.389H10.3156C8.41217 35.4247 6.66631 34.9024 5.65798 33.749C5.19742 33.2236 4.87146 32.5661 4.77507 31.7779C4.67255 30.9354 4.83169 29.9421 5.3045 28.7934L5.3779 28.5804L5.69926 28.6519C6.92793 28.8944 8.50088 29.2177 9.57195 30.6292C10.0653 31.2779 10.4526 32.16 10.6454 33.3789C10.6633 33.1917 10.6793 33.0042 10.6933 32.8167C10.7762 31.711 10.7956 30.6075 10.7067 29.5693C8.63504 28.7398 6.97307 26.2773 6.49035 23.5906C6.30368 22.5507 6.28682 21.4765 6.4995 20.4707C6.82388 18.9365 7.65019 17.5577 9.05176 16.6313L9.19866 16.5255L9.42971 16.7229C11.2505 18.2323 12.164 20.3712 12.4118 22.6858C12.6459 24.887 12.2696 27.2467 11.4984 29.3732L11.3781 29.6908C11.5291 30.7021 11.5868 31.7757 11.5777 32.8555C11.5593 34.912 11.3115 36.9873 11.0009 38.6801C10.9535 38.9443 10.9014 39.1993 10.8448 39.4434C10.782 39.7092 10.7148 39.961 10.6459 40.1973L10.6316 40.2459C14.7321 37.4554 18.5897 34.4468 22.0602 31.2055C22.0508 31.0741 22.0361 30.8187 22.0331 30.4693C22.0315 30.3029 22.0316 30.1195 22.0469 29.9175C22.0618 29.7405 22.088 29.5526 22.1156 29.3551C22.1333 29.2282 22.1516 29.0974 22.1677 28.963C22.2279 28.473 22.2896 27.9462 22.3226 27.4117C21.0645 26.552 19.9959 25.3354 19.3003 24.0463C18.9606 23.4183 18.7096 22.7732 18.5628 22.1545C18.4052 21.4876 18.3531 20.8502 18.4357 20.2906C18.5933 19.2149 19.1458 18.3988 20.1893 18.133C20.9314 17.8455 21.7209 18.1253 22.4095 18.7938C23.1011 19.4653 23.6856 20.544 23.9962 21.783C24.4316 23.531 24.3003 25.5835 23.202 27.2651C23.2317 27.5264 23.2543 27.7884 23.271 28.0474C23.3 28.4796 23.3138 28.8993 23.3046 29.291C23.2975 29.5664 23.2891 29.8258 23.2586 30.0617C25.5089 27.8662 27.5801 25.5667 29.4294 23.1587C29.9268 22.5124 30.3353 21.9081 30.6982 21.2861L30.5366 20.973C29.6614 19.3268 29.1395 17.1755 29.1656 15.1547C29.1778 14.2453 29.3003 13.3623 29.542 12.5695C29.7914 11.7535 30.1555 11.0259 30.6513 10.4617C31.4271 9.57561 32.4844 9.05184 33.8523 9.14666C34.723 9.12801 35.3243 9.65181 35.6732 10.513C36.1674 11.7317 36.1183 13.6841 35.5966 15.5945C34.9527 17.9482 33.572 20.198 31.7152 21.0378C31.2708 21.9351 30.7656 22.7653 30.1011 23.6764C29.7506 24.1567 29.3917 24.6331 29.0247 25.1058C29.2302 25.0086 29.4436 24.9139 29.6635 24.8219C30.0145 24.6755 30.3805 24.538 30.757 24.4162C31.4576 23.0278 32.6907 21.7957 34.0642 20.9946C34.6961 20.6262 35.3571 20.3496 35.9982 20.1864C36.6745 20.0138 37.3294 19.9547 37.9093 20.0418C38.9865 20.2034 39.8234 20.7786 40.1111 21.8901C40.4125 22.6829 40.4079 23.3404 40.206 23.8782C39.8831 24.7441 39.014 25.3161 37.8863 25.6348C35.7029 26.2535 32.5386 25.9052 30.9733 25.257L30.9723 25.2565C30.9059 25.2895 30.8399 25.3229 30.7744 25.3566C30.0903 25.7088 29.4783 26.1243 28.9343 26.4937L28.9343 26.4937L28.9343 26.4937L28.9343 26.4938L28.9342 26.4938L28.9342 26.4938L28.9342 26.4938L28.9342 26.4938L28.9342 26.4938L28.9342 26.4938L28.9341 26.4938L28.9341 26.4938L28.9341 26.4939L28.9341 26.4939C28.7603 26.6119 28.5934 26.7252 28.4333 26.8302C28.1471 27.0185 27.8816 27.1721 27.6529 27.3044L27.6528 27.3045L27.6422 27.3106C27.2478 27.5371 26.9717 27.6797 26.8707 27.7308C24.3148 30.6854 21.445 33.4826 18.3425 36.1258C18.439 36.1119 18.5393 36.0987 18.6436 36.0869C18.8124 36.0679 18.9899 36.0507 19.1743 36.0327C19.8073 35.9711 20.5225 35.9014 21.2523 35.7293C21.4687 35.6779 21.6863 35.6211 21.9033 35.5574L21.987 35.372C22.9816 33.0947 24.7564 31.8122 26.7547 31.2324C27.5688 30.9977 28.4195 30.878 29.2641 30.864C30.5708 30.8438 31.8531 31.0661 32.964 31.3755L33.2684 31.4469L33.1323 31.8231C32.2065 34.5341 30.5218 35.8896 28.7041 36.4741C26.5136 37.1779 24.1071 36.7377 22.5258 36.1342C21.949 36.4308 21.3516 36.6668 20.7688 36.8547C20.293 37.0086 19.8324 37.1314 19.3979 37.2154C19.0658 37.2806 18.7522 37.3351 18.4645 37.3522C18.1662 37.3677 17.9014 37.3522 17.6765 37.332C17.3689 37.3036 17.1421 37.265 17.0113 37.239C14.3914 39.3898 11.6201 41.4355 8.74331 43.378C12.9167 46.8895 18.2737 49 24.116 49ZM11.0114 27.9892C11.5521 26.2913 11.8163 24.4779 11.6835 22.7543C11.5259 20.7024 10.8098 18.7795 9.31951 17.3447C8.2821 18.2215 7.74964 19.4075 7.54155 20.6713C7.39466 21.5574 7.40991 22.4853 7.56751 23.3932C7.93341 25.5055 9.03789 27.5171 10.5605 28.4423C10.4449 27.7963 10.2752 27.1887 10.0384 26.6376C9.98946 26.535 10.0323 26.4107 10.1333 26.3609C10.2358 26.3112 10.3583 26.3547 10.4072 26.4573C10.6511 26.9261 10.8507 27.4408 11.0114 27.9892ZM22.5488 24.6524C22.688 24.9504 22.8034 25.2783 22.8986 25.6249C23.3896 24.4456 23.4313 23.1334 23.2005 21.9664C22.9389 20.6435 22.3391 19.4948 21.6001 18.9321C21.2099 18.6352 20.786 18.5015 20.3622 18.6383C19.7808 18.9087 19.5145 19.4062 19.4289 20.0108C19.3523 20.5534 19.4548 21.1767 19.6614 21.8451C19.8251 22.3705 20.0608 22.9162 20.3545 23.4587C20.8522 24.3784 21.5208 25.2891 22.3316 26.0244C22.3079 25.5917 22.2543 25.1786 22.1524 24.8032C22.1126 24.6928 22.1677 24.5685 22.2764 24.5265C22.3865 24.4861 22.5075 24.5421 22.5488 24.6524ZM24.2238 34.9941C24.0152 35.1778 23.7965 35.3485 23.5703 35.5071C24.9526 35.9643 26.7796 36.2323 28.4914 35.7466C30.069 35.2974 31.5394 34.2014 32.4773 32.0298C31.293 31.8433 29.9481 31.82 28.6215 31.9942C27.7203 32.1123 26.8236 32.3174 25.9943 32.6921C24.9176 33.1785 23.9512 33.9275 23.2443 35.0524C23.4936 34.9332 23.737 34.7995 23.9714 34.6489C24.0647 34.579 24.1978 34.5993 24.2667 34.6941C24.3371 34.7889 24.3171 34.9226 24.2238 34.9941ZM32.451 24.636C33.9671 25.0596 36.1014 25.2538 37.6996 24.8871C39.1532 24.5513 40.1478 23.729 39.6138 22.0704C39.3292 21.4408 38.8151 21.147 38.1984 21.0522C37.6354 20.9652 36.9897 21.0755 36.3103 21.2994C35.7671 21.4766 35.2102 21.7346 34.6639 22.0548C33.7895 22.5663 32.9487 23.2386 32.3103 24.0291C32.7445 23.9552 33.1842 23.9113 33.6234 23.9063C33.7397 23.897 33.8422 23.984 33.8514 24.1021C33.8605 24.2203 33.7749 24.3244 33.6586 24.3337C33.2491 24.3997 32.8456 24.5043 32.451 24.636ZM33.1537 17.4958C32.915 18.1685 32.6929 18.7712 32.471 19.3278C33.5347 18.3933 34.3315 16.8876 34.8132 15.3568C35.3549 13.6375 35.5002 11.8669 35.0978 10.7399C34.8729 10.1135 34.4766 9.6969 33.8523 9.68291C32.9312 9.74975 32.2396 10.1352 31.7087 10.7042C31.1869 11.2638 30.8533 12.0224 30.6391 12.8836C30.4631 13.5924 30.3789 14.3681 30.3682 15.1702C30.3499 16.8413 30.6621 18.618 31.294 20.0621C31.3158 20.0536 31.3376 20.0449 31.3593 20.0359C31.7483 19.2256 32.1117 18.3337 32.5264 17.2564C32.5906 17.0792 32.7849 16.9906 32.9578 17.0558C33.1323 17.1227 33.2195 17.3201 33.1537 17.4958ZM5.92115 29.2597C5.69776 30.1784 5.69469 30.9525 5.82169 31.6085C5.93033 32.1681 6.15218 32.633 6.47962 33.0138C7.22631 33.8843 8.46259 34.3304 9.85651 34.4315C9.82897 32.8786 9.49543 31.8137 8.98285 31.0691C8.17496 29.8939 6.95091 29.5193 5.92115 29.2597Z" fill="#343D33"/>
<defs>
<clipPath id="clip0_522_300">
<rect width="155.323" height="39.8644" fill="white" transform="translate(59.6768 4.15259)"/>
</clipPath>
</defs>
</svg>
